<?xml version="1.0" encoding="UTF-8"?>
<svg version="1.1" xmlns="http://www.w3.org/2000/svg" width="253" height="253">
<path d="M0 0 C0.721875 0.33 1.44375 0.66 2.1875 1 C5.01697427 2.00603529 7.02895466 2.16977402 10 2 C10 2.66 10 3.32 10 4 C10.99 4 11.98 4 13 4 C13 7.3 13 10.6 13 14 C13.94875 14 14.8975 14 15.875 14 C17.58333333 14 19.29166667 14 21 14 C21.66 12.35 22.32 10.7 23 9 C23.66 9 24.32 9 25 9 C25 8.01 25 7.02 25 6 C29.02992782 6.55312735 33.02022924 7.1558062 37 8 C36.62612669 12.80132045 36.24329011 17.47601677 34.9375 22.125 C34.2000028 25.17332175 33.8940469 27.20487447 33.94140625 30.2421875 C33.96074219 31.48226562 33.98007813 32.72234375 34 34 C34.11069824 33.39003174 34.22139648 32.78006348 34.33544922 32.15161133 C34.84324416 29.37089239 35.35904294 26.59171554 35.875 23.8125 C36.04902344 22.85279297 36.22304687 21.89308594 36.40234375 20.90429688 C36.57636719 19.97294922 36.75039062 19.04160156 36.9296875 18.08203125 C37.08679199 17.22843018 37.24389648 16.3748291 37.40576172 15.49536133 C38.03235744 12.8641227 38.93788392 10.48410665 40 8 C41.79206547 8.14084796 43.58364917 8.28783701 45.375 8.4375 C46.87160156 8.55931641 46.87160156 8.55931641 48.3984375 8.68359375 C51 9 51 9 53 10 C52.55014728 12.49800569 52.09696476 14.99535709 51.640625 17.4921875 C51.30081745 19.35284104 50.96160102 21.21360686 50.62695312 23.07519531 C50.23413528 25.25914525 49.83614709 27.4421074 49.4375 29.625 C49.31076904 30.33591797 49.18403809 31.04683594 49.0534668 31.77929688 C48.11355865 36.88644135 48.11355865 36.88644135 47 38 C46.65595361 39.59544732 46.36499479 41.20242231 46.09765625 42.8125 C45.92943359 43.80636719 45.76121094 44.80023438 45.58789062 45.82421875 C45.41451172 46.87222656 45.24113281 47.92023438 45.0625 49 C44.0057616 55.34043037 42.91554563 61.64403891 41.4753418 67.90966797 C40.70867231 71.2811236 40.04719561 74.67096758 39.375 78.0625 C39.2409375 78.73732422 39.106875 79.41214844 38.96875 80.10742188 C38.64492709 81.73810155 38.32232727 83.36902403 38 85 C32.71325618 85.15087022 29.60608531 84.69624506 25 82 C25 81.34 25 80.68 25 80 C23.87851563 79.92652344 23.87851563 79.92652344 22.734375 79.8515625 C21.74953125 79.77679688 20.7646875 79.70203125 19.75 79.625 C18.77546875 79.55539063 17.8009375 79.48578125 16.796875 79.4140625 C14.10366811 79.01534751 12.33036721 78.36492937 10 77 C9.80598215 71.47049138 10.3181935 67.32572058 12 62 C12.70938553 59.00907721 13.35920177 56.00629806 14 53 C13.34 53 12.68 53 12 53 C11.75636719 53.61359375 11.51273438 54.2271875 11.26171875 54.859375 C9.01593658 58.66955652 5.06324324 59.68581572 1 61 C-4.9120833 61.82976608 -9.14119419 60.24978951 -14 57 C-17.31219803 53.68780197 -18.9109712 50.55412044 -20 46 C-19.67 45.01 -19.34 44.02 -19 43 C-19.66 42.67 -20.32 42.34 -21 42 C-20.34 39.69 -19.68 37.38 -19 35 C-18.34 35 -17.68 35 -17 35 C-16.9175 34.0925 -16.835 33.185 -16.75 32.25 C-15.90305826 28.57991912 -14.92092737 27.30133672 -12 25 C-11.34 25 -10.68 25 -10 25 C-10 24.34 -10 23.68 -10 23 C-8.68 22.67 -7.36 22.34 -6 22 C-6 21.34 -6 20.68 -6 20 C-7.27875 20.020625 -8.5575 20.04125 -9.875 20.0625 C-13.75 20.125 -13.75 20.125 -16 19 C-16.17700355 14.39790775 -16.10814567 12.21629134 -14 8 C-10.04 8.33 -6.08 8.66 -2 9 C-1.34 6.03 -0.68 3.06 0 0 Z M12 25 C11.67 25.99 11.34 26.98 11 28 C11.95577057 29.36538653 12.96352976 30.69481525 14 32 C14.71162443 33.64797236 15.39031953 35.31165408 16 37 C16.66 37 17.32 37 18 37 C19.95143115 34.13024831 19.98930952 32.87385237 19.6875 29.3125 C19.35080266 26.16791717 19.35080266 26.16791717 18 25 C16.00041636 24.95919217 13.99954746 24.95745644 12 25 Z M-1 34 C-4.13384514 35.50459629 -4.13384514 35.50459629 -7 38 C-7.4712229 41.83710078 -7.21881093 44.3435672 -6 48 C-1.9921077 49.12346201 -1.9921077 49.12346201 1.8125 48 C3.6493932 44.90628513 4 42.59069824 4 39 C1.70800597 36.03949126 1.70800597 36.03949126 -1 34 Z M30 50 C29.01 50.495 29.01 50.495 28 51 C27.34744802 53.51442049 26.82274884 55.94797464 26.375 58.5 C26.24311279 59.22380859 26.11122559 59.94761719 25.9753418 60.69335938 C25.08019895 65.86400995 24.71855955 70.74644485 25 76 C27.52995577 73.47004423 27.49372601 72.00775553 28 68.5 C28.73748764 63.60308209 29.64394364 58.79167505 30.73046875 53.9609375 C31.19828139 51.92586103 31.19828139 51.92586103 30 50 Z M14 55 C15 57 15 57 15 57 Z " fill="#E3E3E3" transform="translate(48,50)"/>
<path d="M0 0 C14.43297861 0.7794346 28.14149479 4.12748152 42 8 C42.67324626 10.92886695 43.04727855 12.76886042 42.4375 15.75 C41 18 41 18 38.25 18.8125 C35.15477872 18.99107046 32.09940256 19.0737953 29 19 C29 19.66 29 20.32 29 21 C32.46584909 24.14344452 35.90378947 26.71094117 40 29 C39.21302675 32.41021743 38.12880057 35.68885166 37 39 C38.32 39.33 39.64 39.66 41 40 C41.69811766 36.58433354 42.32619914 33.16481484 42.90234375 29.7265625 C43.07056641 28.7365625 43.23878906 27.7465625 43.41210938 26.7265625 C43.7609746 24.66709045 44.10734945 22.60719493 44.45117188 20.546875 C45.35636389 15.24651111 46.38822498 10.13166037 48 5 C48.845625 5.144375 49.69125 5.28875 50.5625 5.4375 C54.03593149 6.0058797 57.51445662 6.51202393 61 7 C61.38218767 8.65614657 61.71395102 10.32457024 62 12 C61.67 12.33 61.34 12.66 61 13 C60.66771919 14.54864584 60.38853695 16.10876289 60.1328125 17.671875 C59.97087402 18.6402832 59.80893555 19.60869141 59.64208984 20.60644531 C59.38613037 22.16250488 59.38613037 22.16250488 59.125 23.75 C57.85217929 31.29890391 56.47588524 38.75072989 54.65625 46.1875 C53.74750386 50.08212631 53.07959156 54.00809336 52.4296875 57.953125 C52 60 52 60 51 61 C50.647247 62.82601552 50.34337344 64.66155569 50.0625 66.5 C49.23116075 71.72556101 48.20211233 76.84809003 47 82 C42.05632546 83.20577428 38.79137588 82.6290678 34 81 C32.91943941 77.02840314 33.14184386 74.57446843 34.4375 70.6875 C34.86869141 69.36298828 34.86869141 69.36298828 35.30859375 68.01171875 C35.53675781 67.34785156 35.76492187 66.68398437 36 66 C35.34 66 34.68 66 34 66 C34 65.34 34 64.68 34 64 C33.07767578 63.90912109 33.07767578 63.90912109 32.13671875 63.81640625 C31.32847656 63.73261719 30.52023438 63.64882812 29.6875 63.5625 C28.88699219 63.48128906 28.08648437 63.40007812 27.26171875 63.31640625 C25 63 25 63 22 62 C21.82164485 57.45194365 22.00214565 54.1205746 24 50 C22.68 50 21.36 50 20 50 C19.87882812 50.83144531 19.75765625 51.66289062 19.6328125 52.51953125 C19.46523437 53.60621094 19.29765625 54.69289062 19.125 55.8125 C18.96257812 56.89144531 18.80015625 57.97039062 18.6328125 59.08203125 C18 62 18 62 16 65 C15.33841957 67.04584079 15.33841957 67.04584079 14.875 69.1875 C14.58625 70.445625 14.2975 71.70375 14 73 C8.55106131 74.19876651 5.77830905 73.91360308 1 71 C0.84509777 65.26861756 1.34755115 60.10650794 2.5 54.5 C2.64308594 53.77296875 2.78617188 53.0459375 2.93359375 52.296875 C3.28233698 50.52990929 3.64019723 48.76474691 4 47 C3.34 47 2.68 47 2 47 C2 46.34 2 45.68 2 45 C0.96875 45.04125 -0.0625 45.0825 -1.125 45.125 C-4.86829627 45.00424851 -7.53734547 44.35127982 -11 43 C-11.05399736 41.54207116 -11.09279177 40.08357288 -11.125 38.625 C-11.15980469 37.40683594 -11.15980469 37.40683594 -11.1953125 36.1640625 C-11 34 -11 34 -9 32 C-8.01 32.33 -7.02 32.66 -6 33 C-5.92945088 29.96638777 -5.95291481 27.23019428 -6.5625 24.25 C-7 22 -7 22 -6 20 C-3.890625 19.69140625 -3.890625 19.69140625 -1.25 19.5625 C2.90877226 19.24076117 5.61179853 18.59762112 9 16 C8.67 15.01 8.34 14.02 8 13 C6.88625 12.855625 5.7725 12.71125 4.625 12.5625 C1 12 1 12 -1 11 C-1.07442057 7.13013042 -1.04702186 3.7264085 0 0 Z M8.4375 29.875 C7.01244141 30.39707031 7.01244141 30.39707031 5.55859375 30.9296875 C2.83023284 31.97550148 2.83023284 31.97550148 0 34 C5.34692326 35.70646487 10.42120766 36.49610908 16 37 C17.85427124 37.18646303 19.70843966 37.37395149 21.5625 37.5625 C23.04161704 37.70883578 24.52076554 37.85485591 26 38 C24.56300045 32.97050156 22.17389165 30.92172415 18 28 C14.12023167 28 12.00849978 28.54377015 8.4375 29.875 Z M36 49 C36 49.66 36 50.32 36 51 C34.35 51 32.7 51 31 51 C30.67 51.66 30.34 52.32 30 53 C32.64 53 35.28 53 38 53 C38.33 51.68 38.66 50.36 39 49 C38.01 49 37.02 49 36 49 Z " fill="#E5E5E5" transform="translate(173,119)"/>
<path d="M0 0 C7.55653787 0.57834834 14.84858245 1.85050681 22.26171875 3.3984375 C23.4105806 3.63406403 24.55944244 3.86969055 25.74311829 4.11245728 C29.39223529 4.86192166 33.03988328 5.61827114 36.6875 6.375 C39.11643938 6.8754714 41.5454751 7.37547545 43.97460938 7.875 C48.62481176 8.83164083 53.27468567 9.78985247 57.92431641 10.74926758 C67.64903785 12.75350918 77.38166142 14.70441527 87.140625 16.53515625 C89.164264 16.91654297 91.18785955 17.29815899 93.21142578 17.67993164 C94.591555 17.93893314 95.97210427 18.19570451 97.35302734 18.45043945 C99.38764152 18.82650895 101.4204517 19.21125254 103.453125 19.59765625 C104.64067383 19.81945557 105.82822266 20.04125488 107.05175781 20.26977539 C110 21 110 21 113 23 C113.62750798 28.14556548 112.23599709 33.03394025 111 38 C110.01 38 109.02 38 108 38 C108 38.66 108 39.32 108 40 C80.37806535 35.08916438 80.37806535 35.08916438 68.234375 31.796875 C64.91889944 30.922479 64.91889944 30.922479 61.140625 30.453125 C58 30 58 30 57 29 C55.1200399 28.6664009 53.23110568 28.38313693 51.33984375 28.12109375 C44.01682877 27.04097652 36.80308737 25.5923101 29.5625 24.0625 C28.35529297 23.81048828 27.14808594 23.55847656 25.90429688 23.29882812 C23.48910881 22.79356406 21.07454434 22.28530909 18.66064453 21.77392578 C16.11064401 21.23481002 13.55991674 20.70175984 11.00732422 20.17529297 C9.73518066 19.90990723 8.46303711 19.64452148 7.15234375 19.37109375 C5.99597412 19.13189209 4.83960449 18.89269043 3.64819336 18.64624023 C1 18 1 18 0 17 C-0.07325168 14.13732433 -0.09238205 11.299281 -0.0625 8.4375 C-0.05798828 7.63119141 -0.05347656 6.82488281 -0.04882812 5.99414062 C-0.03700518 3.99606244 -0.01906914 1.99802217 0 0 Z M58 28 C62 29 62 29 62 29 Z " fill="#070707" transform="translate(0,134)"/>
<path d="M0 0 C5.02533543 0.33502236 9.73429114 1.12549772 14.625 2.3125 C22.14865038 4.13505492 29.75678799 5.38613641 37.39306641 6.6418457 C38.36163574 6.80386475 39.33020508 6.96588379 40.328125 7.1328125 C41.64151855 7.34768311 41.64151855 7.34768311 42.98144531 7.56689453 C45 8 45 8 46 9 C47.59544732 9.34404639 49.20242231 9.63500521 50.8125 9.90234375 C51.80636719 10.07056641 52.80023438 10.23878906 53.82421875 10.41210938 C55.39623047 10.67217773 55.39623047 10.67217773 57 10.9375 C63.3538574 11.99647623 69.67029514 13.09028476 75.94921875 14.53344727 C79.11977703 15.25474927 82.30968861 15.87284477 85.5 16.5 C93.73485801 18.13709964 101.8528711 19.96321778 110 22 C110 27.94 110 33.88 110 40 C100.81022243 38.2375769 100.81022243 38.2375769 96.65625 37.01953125 C92.81950994 35.94967104 88.98541758 35.21479055 85.0625 34.5625 C83.57411005 34.30662107 82.08583156 34.05009309 80.59765625 33.79296875 C79.84242676 33.66325684 79.08719727 33.53354492 78.30908203 33.39990234 C74.53540022 32.74635077 70.76680151 32.06700141 67 31.375 C65.96758179 31.19046265 65.96758179 31.19046265 64.91430664 31.00219727 C60.11536271 30.11536271 60.11536271 30.11536271 59 29 C57.3927538 28.65603098 55.77408946 28.36504343 54.15234375 28.09765625 C53.15396484 27.92943359 52.15558594 27.76121094 51.12695312 27.58789062 C50.07443359 27.41451172 49.02191406 27.24113281 47.9375 27.0625 C41.94865984 26.07251574 36.02328064 25.07598407 30.15161133 23.52905273 C24.16838288 22.05785609 18.07257314 21.01876407 12.0234375 19.85546875 C0.58279865 17.61409359 0.58279865 17.61409359 -3 16 C-4.23072344 12.30782967 -3.60450995 10.60432686 -2.625 6.875 C-2.34914062 5.79992187 -2.07328125 4.72484375 -1.7890625 3.6171875 C-1 1 -1 1 0 0 Z " fill="#060606" transform="translate(143,83)"/>
<path d="M0 0 C2.97 0.33 5.94 0.66 9 1 C8.72285156 2.33933594 8.44570312 3.67867187 8.16015625 5.05859375 C7.79406141 6.85151975 7.4281878 8.64449094 7.0625 10.4375 C6.88009766 11.31599609 6.69769531 12.19449219 6.50976562 13.09960938 C5.36785167 18.72613087 4.55232885 24.2848499 4 30 C5.98 30 7.96 30 10 30 C10.12246094 29.08089844 10.24492188 28.16179687 10.37109375 27.21484375 C11.12012875 21.97159877 12.10355694 16.77061123 13.0625 11.5625 C13.24876953 10.54478516 13.43503906 9.52707031 13.62695312 8.47851562 C14.08342932 5.98545332 14.54114273 3.49262496 15 1 C20.625 0.75 20.625 0.75 24 3 C23.33784404 7.16033842 22.5336093 11.26183318 21.625 15.375 C20.3728073 21.14597504 19.25788326 26.93054651 18.20019531 32.73999023 C17.0887412 38.73967726 15.76368062 44.68482696 14.35766602 50.62207031 C13.33448872 55.05295257 12.66171022 59.40479283 12.2565918 63.93554688 C11.86479831 67.08778832 10.96441208 69.97817547 10 73 C7.36 73 4.72 73 2 73 C2.31619264 64.19403489 3.69792844 55.93956607 5.62792969 47.36206055 C5.80356445 46.58000244 5.97919922 45.79794434 6.16015625 44.9921875 C6.32136963 44.29464355 6.48258301 43.59709961 6.64868164 42.87841797 C7.09192056 40.82702017 7.09192056 40.82702017 7 38 C5.02 37.67 3.04 37.34 1 37 C0.87753906 37.90878906 0.75507812 38.81757812 0.62890625 39.75390625 C-0.14467361 45.16896527 -1.11618196 50.5505093 -2.0625 55.9375 C-2.24876953 57.00291016 -2.43503906 58.06832031 -2.62695312 59.16601562 C-3.08367256 61.77751392 -3.54138084 64.38883478 -4 67 C-6.97 67 -9.94 67 -13 67 C-12.53246973 57.43981201 -11.05471492 48.34056632 -9 39 C-8.78859375 38.02675781 -8.5771875 37.05351563 -8.359375 36.05078125 C-7.91563592 34.03176843 -7.45966336 32.01544703 -7 30 C-6.34 30 -5.68 30 -5 30 C-4.97421875 29.00742188 -4.9484375 28.01484375 -4.921875 26.9921875 C-4.56033537 17.41435073 -3.06928424 9.13647402 0 0 Z " fill="#0C0C0C" transform="translate(74,59)"/>
<path d="M0 0 C2.97 0.33 5.94 0.66 9 1 C8.31712413 7.07166673 7.28410446 13.0049552 6.07421875 18.9921875 C5.79092461 20.40940598 5.79092461 20.40940598 5.50190735 21.85525513 C5.10234787 23.85072146 4.70137684 25.84590561 4.29907227 27.84082031 C3.6964349 30.8306715 3.09882114 33.82149239 2.50195312 36.8125 C0.14561304 48.57555443 -2.34095136 60.30164851 -5 72 C-7.97 71.67 -10.94 71.34 -14 71 C-13.85833643 69.08302063 -13.71150416 67.16642277 -13.5625 65.25 C-13.48128906 64.18265625 -13.40007812 63.1153125 -13.31640625 62.015625 C-13 59 -13 59 -12 55 C-16.62 54.01 -21.24 53.02 -26 52 C-25 46 -25 46 -24 45 C-21.31454012 45.27780619 -18.66889755 45.60862456 -16 46 C-14.96746094 46.14501953 -14.96746094 46.14501953 -13.9140625 46.29296875 C-12.27534154 46.52372742 -10.63756675 46.76118818 -9 47 C-9.04769531 46.071875 -9.09539062 45.14375 -9.14453125 44.1875 C-9.14060847 38.9780503 -7.8567831 34.05095371 -6.6875 29 C-6.22679133 26.95466854 -5.76715775 24.90909462 -5.30859375 22.86328125 C-5.08413574 21.8676416 -4.85967773 20.87200195 -4.62841797 19.84619141 C-3.51543445 14.80533597 -2.54604576 9.73829787 -1.578125 4.66796875 C-1 2 -1 2 0 0 Z " fill="#0C0C0C" transform="translate(223,127)"/>
<path d="M0 0 C3.9771157 2.32609903 7.0980891 4.60253574 8.6796875 9.05078125 C9.43081777 15.3495451 8.89917231 20.47034091 5.6796875 26.05078125 C3.03952648 29.23917243 0.69311512 31.71297204 -3.3203125 33.05078125 C-8.7899638 33.47152366 -12.57390933 32.86346461 -17.3203125 30.05078125 C-21.63526246 25.81191353 -22.69218489 21.43335951 -22.9453125 15.48828125 C-22.70896642 9.66066227 -21.61991645 6.02791491 -17.3203125 2.05078125 C-12.54580994 -2.17806387 -5.77725708 -2.36342335 0 0 Z M-6.3203125 8.05078125 C-9.45415764 9.55537754 -9.45415764 9.55537754 -12.3203125 12.05078125 C-12.7915354 15.88788203 -12.53912343 18.39434845 -11.3203125 22.05078125 C-7.3124202 23.17424326 -7.3124202 23.17424326 -3.5078125 22.05078125 C-1.6709193 18.95706638 -1.3203125 16.64147949 -1.3203125 13.05078125 C-3.61230653 10.09027251 -3.61230653 10.09027251 -6.3203125 8.05078125 Z " fill="#0F0F0F" transform="translate(53.3203125,75.94921875)"/>
<path d="M0 0 C4.02992782 0.55312735 8.02022924 1.1558062 12 2 C11.62612669 6.80132045 11.24329011 11.47601677 9.9375 16.125 C9.2000028 19.17332175 8.8940469 21.20487447 8.94140625 24.2421875 C8.97041016 26.10230469 8.97041016 26.10230469 9 28 C9.16604736 27.08504761 9.16604736 27.08504761 9.33544922 26.15161133 C9.84324416 23.37089239 10.35904294 20.59171554 10.875 17.8125 C11.04902344 16.85279297 11.22304687 15.89308594 11.40234375 14.90429688 C11.57636719 13.97294922 11.75039062 13.04160156 11.9296875 12.08203125 C12.08679199 11.22843018 12.24389648 10.3748291 12.40576172 9.49536133 C13.03235744 6.8641227 13.93788392 4.48410665 15 2 C16.79206547 2.14084796 18.58364917 2.28783701 20.375 2.4375 C21.87160156 2.55931641 21.87160156 2.55931641 23.3984375 2.68359375 C26 3 26 3 28 4 C27.55014728 6.49800569 27.09696476 8.99535709 26.640625 11.4921875 C26.30081745 13.35284104 25.96160102 15.21360686 25.62695312 17.07519531 C25.23413528 19.25914525 24.83614709 21.4421074 24.4375 23.625 C24.31076904 24.33591797 24.18403809 25.04683594 24.0534668 25.77929688 C23.11355865 30.88644135 23.11355865 30.88644135 22 32 C21.65595361 33.59544732 21.36499479 35.20242231 21.09765625 36.8125 C20.92943359 37.80636719 20.76121094 38.80023438 20.58789062 39.82421875 C20.32782227 41.39623047 20.32782227 41.39623047 20.0625 43 C19.0057616 49.34043037 17.91554563 55.64403891 16.4753418 61.90966797 C15.70867231 65.2811236 15.04719561 68.67096758 14.375 72.0625 C14.2409375 72.73732422 14.106875 73.41214844 13.96875 74.10742188 C13.64492709 75.73810155 13.32232727 77.36902403 13 79 C7.71325618 79.15087022 4.60608531 78.69624506 0 76 C0 75.34 0 74.68 0 74 C-1.12148437 73.92652344 -1.12148437 73.92652344 -2.265625 73.8515625 C-3.25046875 73.77679688 -4.2353125 73.70203125 -5.25 73.625 C-6.22453125 73.55539063 -7.1990625 73.48578125 -8.203125 73.4140625 C-10.89633189 73.01534751 -12.66963279 72.36492937 -15 71 C-15.19402835 65.47019212 -14.64861989 61.33377022 -13 56 C-12.63049535 53.67212073 -12.28647533 51.33954855 -12 49 C-10 51 -10 51 -9.98828125 53.828125 C-10.14876953 55.52195312 -10.14876953 55.52195312 -10.3125 57.25 C-10.41175781 58.36890625 -10.51101562 59.4878125 -10.61328125 60.640625 C-10.97522433 63.78477703 -11.44765828 66.88422617 -12 70 C-9.03 70 -6.06 70 -3 70 C-2.92652344 69.01773438 -2.92652344 69.01773438 -2.8515625 68.015625 C-2.07289234 58.51047893 -0.89930514 49.11210187 2 40 C3.98 40 5.96 40 8 40 C9.19362049 43.51478048 8.80279893 46.01403303 8.0390625 49.61328125 C7.70261719 51.2384668 7.70261719 51.2384668 7.359375 52.89648438 C7.11703125 54.02376953 6.8746875 55.15105469 6.625 56.3125 C6.15714101 58.53740086 5.69094963 60.76265315 5.2265625 62.98828125 C5.0090332 64.02936035 4.79150391 65.07043945 4.56738281 66.14306641 C3.91625136 69.42169819 3.41154305 72.68372868 3 76 C5.64 76 8.28 76 11 76 C11.12375 75.0925 11.2475 74.185 11.375 73.25 C11.58140592 71.83305123 11.78997947 70.41641752 12 69 C12.11085938 68.23171875 12.22171875 67.4634375 12.3359375 66.671875 C13.58499515 58.61191806 15.34704205 50.67929879 17.10791016 42.71948242 C18.38218626 36.93257614 19.57490346 31.14413202 20.625 25.3125 C21.80929046 18.79551876 23.29131722 12.39847167 25 6 C20.545 5.01 20.545 5.01 16 4 C15.87625 5.4025 15.7525 6.805 15.625 8.25 C14.7793021 16.6474228 13.56325971 24.9440409 11 33 C9.02 33 7.04 33 5 33 C4.7990887 26.51250932 5.42224789 20.85944734 6.9375 14.5625 C7.11990234 13.76134766 7.30230469 12.96019531 7.49023438 12.13476562 C8.83511578 6.32976845 8.83511578 6.32976845 10 4 C7.03 3.67 4.06 3.34 1 3 C0.34 6.63 -0.32 10.26 -1 14 C-1.99 14.33 -2.98 14.66 -4 15 C-4.17835515 10.45194365 -3.99785435 7.1205746 -2 3 C-1.34 3 -0.68 3 0 3 C0 2.01 0 1.02 0 0 Z M5 44 C4.01 44.495 4.01 44.495 3 45 C2.34744802 47.51442049 1.82274884 49.94797464 1.375 52.5 C1.24311279 53.22380859 1.11122559 53.94761719 0.9753418 54.69335938 C0.08019895 59.86400995 -0.28144045 64.74644485 0 70 C2.52995577 67.47004423 2.49372601 66.00775553 3 62.5 C3.73748764 57.60308209 4.64394364 52.79167505 5.73046875 47.9609375 C6.19828139 45.92586103 6.19828139 45.92586103 5 44 Z " fill="#DEDEDE" transform="translate(73,56)"/>
<path d="M0 0 C4.29189252 0.79044537 8.5834715 1.58258084 12.875 2.375 C14.07898438 2.59671875 15.28296875 2.8184375 16.5234375 3.046875 C18.89875495 3.48579235 21.27344582 3.92811576 23.64746094 4.37402344 C25.78927273 4.77393645 27.93303207 5.16364311 30.07910156 5.54003906 C30.98370117 5.7047168 31.88830078 5.86939453 32.8203125 6.0390625 C33.60937988 6.17779785 34.39844727 6.3165332 35.21142578 6.45947266 C35.80165527 6.63784668 36.39188477 6.8162207 37 7 C38.43088528 9.86177057 37.59991697 11.93375773 37 15 C31.99109914 14.38487182 26.99367864 13.7282448 22 13 C24.15166637 19.58947826 27.67897784 22.71832824 33 27 C33.66 27.66 34.32 28.32 35 29 C34.01 30.65 33.02 32.3 32 34 C27.04129308 33.54920846 23.63482584 31.23993118 20 28 C18.0625 25.1875 18.0625 25.1875 17 23 C14.03638002 23.43582647 11.94881062 24.02857082 9.3125 25.5 C4.92362855 27.48741349 0.76783459 27.72674466 -4 28 C-6 22.25 -6 22.25 -6 20 C-4.78763672 19.85304687 -4.78763672 19.85304687 -3.55078125 19.703125 C4.60975885 18.7642036 4.60975885 18.7642036 11 14 C11.33 12.68 11.66 11.36 12 10 C7.71 9.34 3.42 8.68 -1 8 C-0.67 5.36 -0.34 2.72 0 0 Z " fill="#0D0D0D" transform="translate(175,121)"/>
<path d="M0 0 C7.55653787 0.57834834 14.84858245 1.85050681 22.26171875 3.3984375 C23.4105806 3.63406403 24.55944244 3.86969055 25.74311829 4.11245728 C29.39223529 4.86192166 33.03988328 5.61827114 36.6875 6.375 C39.11643938 6.8754714 41.5454751 7.37547545 43.97460938 7.875 C48.62481176 8.83164083 53.27468567 9.78985247 57.92431641 10.74926758 C67.64903785 12.75350918 77.38166142 14.70441527 87.140625 16.53515625 C89.164264 16.91654297 91.18785955 17.29815899 93.21142578 17.67993164 C94.591555 17.93893314 95.97210427 18.19570451 97.35302734 18.45043945 C99.38764152 18.82650895 101.4204517 19.21125254 103.453125 19.59765625 C104.64067383 19.81945557 105.82822266 20.04125488 107.05175781 20.26977539 C110 21 110 21 113 23 C113.62750798 28.14556548 112.23599709 33.03394025 111 38 C110.01 38 109.02 38 108 38 C108 38.66 108 39.32 108 40 C80.37806535 35.08916438 80.37806535 35.08916438 68.234375 31.796875 C64.91889944 30.922479 64.91889944 30.922479 61.140625 30.453125 C58 30 58 30 57 29 C55.1200399 28.6664009 53.23110568 28.38313693 51.33984375 28.12109375 C44.01682877 27.04097652 36.80308737 25.5923101 29.5625 24.0625 C28.35529297 23.81048828 27.14808594 23.55847656 25.90429688 23.29882812 C17.59679677 21.56087599 9.29756805 19.78468799 1 18 C0.67 16.68 0.34 15.36 0 14 C4.8242065 14.39542676 9.25826021 14.99125813 13.90234375 16.36328125 C20.77544591 18.28319043 27.73869687 19.56920361 34.75 20.875 C37.51113604 21.39599468 40.27141387 21.92138357 43.03125 22.44921875 C43.71326477 22.57962051 44.39527954 22.71002228 45.09796143 22.84437561 C51.17414714 24.01555927 57.21293332 25.33128316 63.25 26.6875 C71.09236321 28.44659283 78.92854195 29.90080275 86.88964844 31.01245117 C91.13220858 31.62009466 94.96341139 32.57961486 99 34 C100.78462483 34.40719609 102.57641478 34.78472712 104.375 35.125 C105.90125 35.41375 107.4275 35.7025 109 36 C109.66 32.04 110.32 28.08 111 24 C108.3703125 23.62875 108.3703125 23.62875 105.6875 23.25 C99.58934996 22.30832614 93.57047834 21.10907917 87.53955078 19.80908203 C79.82036981 18.15296684 72.0796779 16.61144579 64.33587646 15.07583618 C51.12799346 12.45656408 37.94523068 9.75454074 24.79321289 6.86572266 C18.3281415 5.44832923 18.3281415 5.44832923 11.796875 4.3984375 C9 4 9 4 8 3 C6.845 2.855625 5.69 2.71125 4.5 2.5625 C3.345 2.376875 2.19 2.19125 1 2 C0.67 1.34 0.34 0.68 0 0 Z M58 28 C62 29 62 29 62 29 Z " fill="#E8E8E8" transform="translate(0,134)"/>
<path d="M0 0 C9.42752798 0.82847973 18.7627949 2.20356175 28.125 3.5625 C29.76559666 3.79902476 31.40622146 4.03535446 33.046875 4.27148438 C37.03157791 4.84540802 41.01589082 5.42196977 45 6 C45 7.98 45 9.96 45 12 C42.79173622 12.02722517 40.58337362 12.04649729 38.375 12.0625 C36.53035156 12.07990234 36.53035156 12.07990234 34.6484375 12.09765625 C31.32276209 12.00863924 28.25952412 11.63686087 25 11 C24.83564453 12.19882813 24.83564453 12.19882813 24.66796875 13.421875 C23.56047845 21.09327125 22.0220049 28.51858189 20 36 C17.03 35.67 14.06 35.34 11 35 C11.79623778 26.24138438 13.42197613 17.64439492 15 9 C14.16855469 8.93941406 13.33710938 8.87882813 12.48046875 8.81640625 C11.39378906 8.73261719 10.30710938 8.64882812 9.1875 8.5625 C8.10855469 8.48128906 7.02960938 8.40007812 5.91796875 8.31640625 C3 8 3 8 0 7 C0 4.69 0 2.38 0 0 Z " fill="#090909" transform="translate(165,154)"/>
<path d="M0 0 C5.02533543 0.33502236 9.73429114 1.12549772 14.625 2.3125 C22.14865038 4.13505492 29.75678799 5.38613641 37.39306641 6.6418457 C38.36163574 6.80386475 39.33020508 6.96588379 40.328125 7.1328125 C41.64151855 7.34768311 41.64151855 7.34768311 42.98144531 7.56689453 C45 8 45 8 46 9 C47.59544732 9.34404639 49.20242231 9.63500521 50.8125 9.90234375 C51.80636719 10.07056641 52.80023438 10.23878906 53.82421875 10.41210938 C55.39623047 10.67217773 55.39623047 10.67217773 57 10.9375 C63.3538574 11.99647623 69.67029514 13.09028476 75.94921875 14.53344727 C79.11977703 15.25474927 82.30968861 15.87284477 85.5 16.5 C93.72483516 18.13510709 101.87390436 19.93153929 110 22 C110 22.66 110 23.32 110 24 C101.46345986 23.37255604 93.0069898 22.47275541 84.77124023 20.05029297 C81.17589017 19.04898553 77.62424916 18.2836555 73.95703125 17.59765625 C73.30731857 17.4744249 72.6576059 17.35119354 71.98820496 17.22422791 C69.24817665 16.70456276 66.5067909 16.19225001 63.76538086 15.67993164 C56.06348359 14.23611494 48.44724173 12.65154535 40.85668945 10.68969727 C36.01098677 9.51978785 31.10573071 8.73585007 26.1875 7.9375 C15.2809574 6.15902645 15.2809574 6.15902645 11.046875 4.88671875 C7.58630826 3.8796051 4.58532822 3.85366007 1 4 C0.34 7.63 -0.32 11.26 -1 15 C0.41812988 15.11988281 1.83625977 15.23976563 3.29736328 15.36328125 C9.03328163 15.93998052 14.60345413 17.00906544 20.2421875 18.1875 C21.84185112 18.5153801 21.84185112 18.5153801 23.47383118 18.84988403 C26.94188235 19.56184865 30.40843632 20.28083104 33.875 21 C36.27895649 21.49509645 38.68301033 21.98972044 41.0871582 22.48388672 C45.98874385 23.49191196 50.88980093 24.50245462 55.79052734 25.51464844 C62.60397488 26.9204366 69.4205276 28.31057872 76.23828125 29.6953125 C78.28076783 30.11064703 80.32324846 30.52601083 82.36572266 30.94140625 C85.26050986 31.53010729 88.15536042 32.1184826 91.05047607 32.70556641 C93.69416996 33.24205053 96.33737527 33.78087937 98.98046875 34.3203125 C99.75602615 34.4771048 100.53158356 34.63389709 101.3306427 34.79544067 C104.28922533 35.40106653 107.13170348 36.04390116 110 37 C109.67 37.99 109.34 38.98 109 40 C108.67 39.67 108.34 39.34 108 39 C106.06855609 38.67060646 104.12915682 38.38757281 102.1875 38.125 C97.91476111 37.49814726 93.79201966 36.75420709 89.625 35.625 C82.39615583 33.70774228 75.03039912 32.56612721 67.65673828 31.35791016 C66.1966333 31.11500244 66.1966333 31.11500244 64.70703125 30.8671875 C63.8250708 30.72394043 62.94311035 30.58069336 62.03442383 30.43310547 C60 30 60 30 59 29 C57.3927538 28.65603098 55.77408946 28.36504343 54.15234375 28.09765625 C53.15396484 27.92943359 52.15558594 27.76121094 51.12695312 27.58789062 C50.07443359 27.41451172 49.02191406 27.24113281 47.9375 27.0625 C41.94865984 26.07251574 36.02328064 25.07598407 30.15161133 23.52905273 C24.16838288 22.05785609 18.07257314 21.01876407 12.0234375 19.85546875 C0.58279865 17.61409359 0.58279865 17.61409359 -3 16 C-4.23072344 12.30782967 -3.60450995 10.60432686 -2.625 6.875 C-2.34914062 5.79992187 -2.07328125 4.72484375 -1.7890625 3.6171875 C-1 1 -1 1 0 0 Z " fill="#EDEDED" transform="translate(143,83)"/>
<path d="M0 0 C0.5775 0.20625 1.155 0.4125 1.75 0.625 C-1.57851768 3.63843955 -4.06882813 4.07167544 -8.5 4.3125 C-9.57765625 4.37824219 -10.6553125 4.44398438 -11.765625 4.51171875 C-12.99539062 4.56779297 -12.99539062 4.56779297 -14.25 4.625 C-13.59 6.935 -12.93 9.245 -12.25 11.625 C-6.06470673 11.37150437 -1.35528093 10.64740738 3.9609375 7.3671875 C5.75 6.625 5.75 6.625 7.84375 6.82421875 C10.94583674 8.12734945 12.04012231 10.83219978 13.75 13.625 C14.41 14.285 15.07 14.945 15.75 15.625 C11.07585596 14.99335891 11.07585596 14.99335891 9.3125 13 C7.77607649 11.33431466 7.77607649 11.33431466 5.1875 11.6875 C0.54437238 12.95380753 -3.82511453 14.74486092 -8.25 16.625 C-5.28 17.615 -2.31 18.605 0.75 19.625 C-2.63386718 21.31693359 -6.28184949 19.87288179 -9.875 19.1875 C-10.67679688 19.03990234 -11.47859375 18.89230469 -12.3046875 18.74023438 C-14.28754855 18.3743493 -16.26892377 18.00042879 -18.25 17.625 C-18.25 19.935 -18.25 22.245 -18.25 24.625 C-10.825 25.615 -10.825 25.615 -3.25 26.625 C-3.25 34.5 -3.25 34.5 -4.125 38.46484375 C-4.39570313 39.7168457 -4.39570313 39.7168457 -4.671875 40.99414062 C-4.95804688 42.26547852 -4.95804688 42.26547852 -5.25 43.5625 C-5.53617188 44.87444336 -5.53617188 44.87444336 -5.828125 46.21289062 C-6.29562066 48.35168326 -6.77191326 50.48854986 -7.25 52.625 C-4.28 52.955 -1.31 53.285 1.75 53.625 C1.853125 52.59375 1.95625 51.5625 2.0625 50.5 C2.84464389 44.12782776 4.35215136 37.88454864 5.75 31.625 C6.50776672 34.46824438 7.05731646 37.26946792 7.4375 40.1875 C7.54449219 40.95191406 7.65148437 41.71632812 7.76171875 42.50390625 C7.75 44.625 7.75 44.625 5.75 47.625 C5.08841957 49.67084079 5.08841957 49.67084079 4.625 51.8125 C4.191875 53.6996875 4.191875 53.6996875 3.75 55.625 C-1.69893869 56.82376651 -4.47169095 56.53860308 -9.25 53.625 C-9.40490223 47.89361756 -8.90244885 42.73150794 -7.75 37.125 C-7.60691406 36.39796875 -7.46382812 35.6709375 -7.31640625 34.921875 C-6.96766302 33.15490929 -6.60980277 31.38974691 -6.25 29.625 C-6.91 29.625 -7.57 29.625 -8.25 29.625 C-8.25 28.965 -8.25 28.305 -8.25 27.625 C-9.796875 27.686875 -9.796875 27.686875 -11.375 27.75 C-15.11829627 27.62924851 -17.78734547 26.97627982 -21.25 25.625 C-21.30399736 24.16707116 -21.34279177 22.70857288 -21.375 21.25 C-21.40980469 20.03183594 -21.40980469 20.03183594 -21.4453125 18.7890625 C-21.25 16.625 -21.25 16.625 -19.25 14.625 C-18.26 14.955 -17.27 15.285 -16.25 15.625 C-16.17945088 12.59138777 -16.20291481 9.85519428 -16.8125 6.875 C-17.25 4.625 -17.25 4.625 -16.25 2.625 C-14.10546875 2.28125 -14.10546875 2.28125 -11.4375 2.125 C-7.4572954 1.88983282 -3.66165656 -0.61027609 0 0 Z " fill="#D7D7D7" transform="translate(183.25,136.375)"/>
<path d="M0 0 C2.97 0.33 5.94 0.66 9 1 C8.67 4.3 8.34 7.6 8 11 C11.63 11.66 15.26 12.32 19 13 C18.67 15.31 18.34 17.62 18 20 C11.07540855 19.60469852 4.64902243 18.55223931 -2.05078125 16.765625 C-6.33089175 15.65449698 -10.65563399 14.81697148 -15 14 C-15.04254356 12.00045254 -15.04080783 9.99958364 -15 8 C-14 7 -14 7 -11.27734375 6.90234375 C-9.62412109 6.91974609 -9.62412109 6.91974609 -7.9375 6.9375 C-6.28041016 6.95103516 -6.28041016 6.95103516 -4.58984375 6.96484375 C-3.73519531 6.97644531 -2.88054688 6.98804688 -2 7 C-1.34 4.69 -0.68 2.38 0 0 Z " fill="#101010" transform="translate(49,54)"/>
<path d="M0 0 C1.98 0 3.96 0 6 0 C7.17802897 3.49630302 6.82444169 6.02410592 6.109375 9.61328125 C5.89410156 10.69673828 5.67882812 11.78019531 5.45703125 12.89648438 C5.22371094 14.02376953 4.99039063 15.15105469 4.75 16.3125 C4.53214844 17.42818359 4.31429687 18.54386719 4.08984375 19.69335938 C2.91793577 25.47408673 1.60132068 30.69789638 -1 36 C-1.33 35.34 -1.66 34.68 -2 34 C-4.45291361 33.60645698 -4.45291361 33.60645698 -7.3125 33.5 C-11.07866301 33.2988698 -13.72950969 32.92655962 -17 31 C-17.19402835 25.47019212 -16.64861989 21.33377022 -15 16 C-14.63049535 13.67212073 -14.28647533 11.33954855 -14 9 C-12 11 -12 11 -11.98828125 13.828125 C-12.14876953 15.52195312 -12.14876953 15.52195312 -12.3125 17.25 C-12.41175781 18.36890625 -12.51101562 19.4878125 -12.61328125 20.640625 C-12.97522433 23.78477703 -13.44765828 26.88422617 -14 30 C-11.03 30 -8.06 30 -5 30 C-4.95101562 29.34515625 -4.90203125 28.6903125 -4.8515625 28.015625 C-4.07289234 18.51047893 -2.89930514 9.11210187 0 0 Z M3 4 C2.01 4.495 2.01 4.495 1 5 C0.34744802 7.51442049 -0.17725116 9.94797464 -0.625 12.5 C-0.75688721 13.22380859 -0.88877441 13.94761719 -1.0246582 14.69335938 C-1.91980105 19.86400995 -2.28144045 24.74644485 -2 30 C0.52995577 27.47004423 0.49372601 26.00775553 1 22.5 C1.73748764 17.60308209 2.64394364 12.79167505 3.73046875 7.9609375 C4.19828139 5.92586103 4.19828139 5.92586103 3 4 Z " fill="#E0E0E0" transform="translate(75,96)"/>
<path d="M0 0 C7.20755936 0.57042919 14.16919947 1.70932166 21.2421875 3.1875 C22.30862991 3.40608673 23.37507233 3.62467346 24.47383118 3.84988403 C27.94188235 4.56184865 31.40843632 5.28083104 34.875 6 C37.27895649 6.49509645 39.68301033 6.98972044 42.0871582 7.48388672 C46.98874385 8.49191196 51.88980093 9.50245462 56.79052734 10.51464844 C63.60397488 11.9204366 70.4205276 13.31057872 77.23828125 14.6953125 C79.28076783 15.11064703 81.32324846 15.52601083 83.36572266 15.94140625 C86.26050986 16.53010729 89.15536042 17.1184826 92.05047607 17.70556641 C94.69416996 18.24205053 97.33737527 18.78087937 99.98046875 19.3203125 C100.75602615 19.4771048 101.53158356 19.63389709 102.3306427 19.79544067 C105.28922533 20.40106653 108.13170348 21.04390116 111 22 C110.505 23.485 110.505 23.485 110 25 C109.67 24.67 109.34 24.34 109 24 C107.06855609 23.67060646 105.12915682 23.38757281 103.1875 23.125 C98.91476111 22.49814726 94.79201966 21.75420709 90.625 20.625 C83.39615583 18.70774228 76.03039912 17.56612721 68.65673828 16.35791016 C67.1966333 16.11500244 67.1966333 16.11500244 65.70703125 15.8671875 C64.8250708 15.72394043 63.94311035 15.58069336 63.03442383 15.43310547 C61 15 61 15 60 14 C58.3927538 13.65603098 56.77408946 13.36504343 55.15234375 13.09765625 C54.15396484 12.92943359 53.15558594 12.76121094 52.12695312 12.58789062 C50.54817383 12.32782227 50.54817383 12.32782227 48.9375 12.0625 C43.00082626 11.0811391 37.12710972 10.10286753 31.30297852 8.5690918 C25.57836178 7.15447485 19.77633328 6.05725755 14 4.875 C12.63929108 4.59520686 11.27861372 4.3152602 9.91796875 4.03515625 C6.61228563 3.35526398 3.30629203 2.67692381 0 2 C0 1.34 0 0.68 0 0 Z " fill="#EBEBEB" transform="translate(142,98)"/>
<path d="M0 0 C2.60452271 0.14086602 5.20850197 0.28748464 7.8125 0.4375 C8.91948242 0.49647461 8.91948242 0.49647461 10.04882812 0.55664062 C13.23071342 0.74381035 15.96162378 0.98720793 19 2 C19 2.66 19 3.32 19 4 C17.95199219 4.22042969 17.95199219 4.22042969 16.8828125 4.4453125 C14.12149286 5.12586437 11.59363365 5.82771194 9 7 C7.23902514 10.01773585 7.23902514 10.01773585 7 13 C7.84304687 13.13277344 8.68609375 13.26554688 9.5546875 13.40234375 C10.65039062 13.57894531 11.74609375 13.75554687 12.875 13.9375 C14.51082031 14.19853516 14.51082031 14.19853516 16.1796875 14.46484375 C19 15 19 15 21 16 C20.34 21.28 19.68 26.56 19 32 C22.63 32.33 26.26 32.66 30 33 C30 33.66 30 34.32 30 35 C25.05632546 36.20577428 21.79137588 35.6290678 17 34 C15.91943941 30.02840314 16.14184386 27.57446843 17.4375 23.6875 C17.86869141 22.36298828 17.86869141 22.36298828 18.30859375 21.01171875 C18.53675781 20.34785156 18.76492187 19.68398437 19 19 C18.34 19 17.68 19 17 19 C17 18.34 17 17.68 17 17 C16.07767578 16.90912109 16.07767578 16.90912109 15.13671875 16.81640625 C14.32847656 16.73261719 13.52023438 16.64882812 12.6875 16.5625 C11.88699219 16.48128906 11.08648437 16.40007812 10.26171875 16.31640625 C8 16 8 16 5 15 C4.82164485 10.45194365 5.00214565 7.1205746 7 3 C5.68 3 4.36 3 3 3 C2.67 5.31 2.34 7.62 2 10 C1.01 9.67 0.02 9.34 -1 9 C-0.67 6.03 -0.34 3.06 0 0 Z " fill="#F9F9F9" transform="translate(190,166)"/>
<path d="M0 0 C7.55653787 0.57834834 14.84858245 1.85050681 22.26171875 3.3984375 C23.4105806 3.63406403 24.55944244 3.86969055 25.74311829 4.11245728 C29.39223529 4.86192166 33.03988328 5.61827114 36.6875 6.375 C39.11643938 6.8754714 41.5454751 7.37547545 43.97460938 7.875 C48.61697774 8.82997073 53.25893699 9.78689284 57.90063477 10.74511719 C66.7504695 12.56930056 75.60965636 14.34312711 84.48046875 16.0625 C86.04957262 16.37453043 87.61858665 16.68701306 89.1875 17 C89.99251953 17.15210938 90.79753906 17.30421875 91.62695312 17.4609375 C95.76337382 18.29851978 98.83943743 19.00129912 102 22 C94.29667902 21.34732174 86.82770298 19.81838537 79.27536011 18.21865845 C75.49008574 17.41698065 71.70210639 16.62831481 67.9140625 15.83984375 C67.15562546 15.68174728 66.39718842 15.52365082 65.61576843 15.36076355 C58.73765903 13.93296064 51.84118549 12.61069979 44.9375 11.3125 C36.39007592 9.70116491 27.92812721 7.90037083 19.48828125 5.796875 C15.95156808 4.93695336 15.95156808 4.93695336 12.10546875 4.453125 C9 4 9 4 8 3 C6.845 2.855625 5.69 2.71125 4.5 2.5625 C3.345 2.376875 2.19 2.19125 1 2 C0.67 1.34 0.34 0.68 0 0 Z " fill="#DADADA" transform="translate(0,134)"/>
<path d="M0 0 C0.99 0 1.98 0 3 0 C3.41327858 6.3675515 2.74262071 12.32242877 1.5625 18.5625 C1.42803467 19.27728516 1.29356934 19.99207031 1.1550293 20.72851562 C0.13844494 25.86155506 0.13844494 25.86155506 -1 27 C-1.34404639 28.59544732 -1.63500521 30.20242231 -1.90234375 31.8125 C-2.07056641 32.80636719 -2.23878906 33.80023438 -2.41210938 34.82421875 C-2.67217773 36.39623047 -2.67217773 36.39623047 -2.9375 38 C-3.9942384 44.34043037 -5.08445437 50.64403891 -6.5246582 56.90966797 C-7.29132769 60.2811236 -7.95280439 63.67096758 -8.625 67.0625 C-8.7590625 67.73732422 -8.893125 68.41214844 -9.03125 69.10742188 C-9.35507291 70.73810155 -9.67767273 72.36902403 -10 74 C-14.56038309 74.08594362 -17.85797918 74.00825252 -22 72 C-21.67 70.02 -21.34 68.04 -21 66 C-20.67 66 -20.34 66 -20 66 C-20 67.65 -20 69.3 -20 71 C-17.36 71 -14.72 71 -12 71 C-11.87625 70.0925 -11.7525 69.185 -11.625 68.25 C-11.41859408 66.83305123 -11.21002053 65.41641752 -11 64 C-10.88914062 63.23171875 -10.77828125 62.4634375 -10.6640625 61.671875 C-9.41500485 53.61191806 -7.65295795 45.67929879 -5.89208984 37.71948242 C-4.61781374 31.93257614 -3.42509654 26.14413202 -2.375 20.3125 C-1.19070954 13.79551876 0.29131722 7.39847167 2 1 C1.34 0.67 0.68 0.34 0 0 Z " fill="#D9D9D9" transform="translate(96,61)"/>
<path d="M0 0 C3.63 0 7.26 0 11 0 C11.33 1.65 11.66 3.3 12 5 C11.67 5.33 11.34 5.66 11 6 C10.66771919 7.54864584 10.38853695 9.10876289 10.1328125 10.671875 C9.97087402 11.6402832 9.80893555 12.60869141 9.64208984 13.60644531 C9.4714502 14.64381836 9.30081055 15.68119141 9.125 16.75 C7.85217929 24.29890391 6.47588524 31.75072989 4.65625 39.1875 C3.74750386 43.08212631 3.07959156 47.00809336 2.4296875 50.953125 C2 53 2 53 1 54 C0.64933686 55.86823891 0.34470301 57.74520142 0.0625 59.625 C-0.66776704 64.2262314 -1.58876791 68.56469914 -3 73 C-3.66 73 -4.32 73 -5 73 C-3.69139653 59.73346824 -0.7070217 46.83242582 2.15917969 33.83251953 C3.59005206 27.31050024 4.98033417 20.77983884 6.375 14.25 C6.88263172 11.8801696 7.39042709 9.51037425 7.8984375 7.140625 C8.11161621 6.14579102 8.32479492 5.15095703 8.54443359 4.12597656 C8.69477051 3.4244043 8.84510742 2.72283203 9 2 C6.03 1.67 3.06 1.34 0 1 C0 0.67 0 0.34 0 0 Z " fill="#D6D6D6" transform="translate(223,126)"/>
<path d="M0 0 C0.721875 0.33 1.44375 0.66 2.1875 1 C5.01697427 2.00603529 7.02895466 2.16977402 10 2 C10 2.66 10 3.32 10 4 C10.99 4 11.98 4 13 4 C13 7.3 13 10.6 13 14 C14.423125 13.938125 14.423125 13.938125 15.875 13.875 C19 14 19 14 21 16 C21.125 18.625 21.125 18.625 21 21 C21.66 21 22.32 21 23 21 C22.67 21.66 22.34 22.32 22 23 C21.01 23.33 20.02 23.66 19 24 C19.33 21.69 19.66 19.38 20 17 C19.06027344 16.90912109 19.06027344 16.90912109 18.1015625 16.81640625 C16.87566406 16.69072266 16.87566406 16.69072266 15.625 16.5625 C14.81289063 16.48128906 14.00078125 16.40007812 13.1640625 16.31640625 C11 16 11 16 9 15 C9.33 11.7 9.66 8.4 10 5 C7.03 4.67 4.06 4.34 1 4 C0.855625 5.134375 0.71125 6.26875 0.5625 7.4375 C0 11 0 11 -1 12 C-3.01964199 12.07244053 -5.04167124 12.08377188 -7.0625 12.0625 C-8.71958984 12.04896484 -8.71958984 12.04896484 -10.41015625 12.03515625 C-11.26480469 12.02355469 -12.11945312 12.01195312 -13 12 C-13.33 13.98 -13.66 15.96 -14 18 C-10.7 18.33 -7.4 18.66 -4 19 C-4 19.33 -4 19.66 -4 20 C-5.62490954 20.02698189 -7.24994633 20.04638757 -8.875 20.0625 C-10.23238281 20.07990234 -10.23238281 20.07990234 -11.6171875 20.09765625 C-14 20 -14 20 -16 19 C-16.17700355 14.39790775 -16.10814567 12.21629134 -14 8 C-10.04 8.33 -6.08 8.66 -2 9 C-1.34 6.03 -0.68 3.06 0 0 Z " fill="#DCDCDC" transform="translate(48,50)"/>
<path d="M0 0 C1.65 0 3.3 0 5 0 C4.42029353 8.49569832 2.76198299 16.68875949 1 25 C3.97 25.33 6.94 25.66 10 26 C10.1546875 24.453125 10.1546875 24.453125 10.3125 22.875 C11.09464389 16.50282776 12.60215136 10.25954864 14 4 C14.75776672 6.84324438 15.30731646 9.64446792 15.6875 12.5625 C15.79449219 13.32691406 15.90148437 14.09132812 16.01171875 14.87890625 C16 17 16 17 14 20 C13.33841957 22.04584079 13.33841957 22.04584079 12.875 24.1875 C12.441875 26.0746875 12.441875 26.0746875 12 28 C6.55106131 29.19876651 3.77830905 28.91360308 -1 26 C-1.15490223 20.26861756 -0.65244885 15.10650794 0.5 9.5 C0.64308594 8.77296875 0.78617188 8.0459375 0.93359375 7.296875 C1.28233698 5.52990929 1.64019723 3.76474691 2 2 C1.34 2 0.68 2 0 2 C0 1.34 0 0.68 0 0 Z " fill="#E4E4E4" transform="translate(175,164)"/>
<path d="M0 0 C0.9590625 0.19078125 1.918125 0.3815625 2.90625 0.578125 C4.1128125 0.82046875 5.319375 1.0628125 6.5625 1.3125 C8.21831757 1.62211333 9.87460793 1.92920409 11.53125 2.234375 C19.96447025 3.79515009 28.33591865 5.39748144 36.6328125 7.5859375 C42.55896704 9.05562382 48.56839475 10.15789776 54.5625 11.3125 C54.5625 11.9725 54.5625 12.6325 54.5625 13.3125 C46.03439452 12.685676 37.57918623 11.79376592 29.35351562 9.36499023 C25.64778204 8.33617664 21.98470968 7.56915659 18.203125 6.875 C16.82678535 6.61738815 15.45048435 6.35956971 14.07421875 6.1015625 C11.93293903 5.70398787 9.79130063 5.30862469 7.64892578 4.91699219 C5.56165105 4.53403215 3.47610812 4.14258227 1.390625 3.75 C0.1521582 3.52183594 -1.08630859 3.29367188 -2.36230469 3.05859375 C-5.4375 2.3125 -5.4375 2.3125 -8.4375 0.3125 C-5.31025114 -0.67318615 -3.19828441 -0.65646232 0 0 Z " fill="#EEEEEE" transform="translate(198.4375,93.6875)"/>
<path d="M0 0 C1.77155654 0.11429397 3.54226229 0.24183037 5.3125 0.375 C6.79169922 0.47941406 6.79169922 0.47941406 8.30078125 0.5859375 C11 1 11 1 14 3 C14.62750798 8.14556548 13.23599709 13.03394025 12 18 C11.01 18 10.02 18 9 18 C9 18.66 9 19.32 9 20 C4.56185484 19.19099794 0.12460187 18.37720308 -4.3125 17.5625 C-5.57513672 17.33240234 -6.83777344 17.10230469 -8.13867188 16.86523438 C-9.95141602 16.53168945 -9.95141602 16.53168945 -11.80078125 16.19140625 C-12.91622314 15.98717041 -14.03166504 15.78293457 -15.1809082 15.57250977 C-18 15 -18 15 -21 14 C-20.67 13.01 -20.34 12.02 -20 11 C-17.85344499 11.30750371 -15.70776715 11.6211366 -13.5625 11.9375 C-12.36753906 12.11152344 -11.17257813 12.28554687 -9.94140625 12.46484375 C-7 13 -7 13 -6 14 C-3.31137336 14.39993686 -0.63647783 14.75134543 2.0625 15.0625 C2.82111328 15.15337891 3.57972656 15.24425781 4.36132812 15.33789062 C6.2404301 15.5624374 8.12016095 15.78170978 10 16 C10.66 12.04 11.32 8.08 12 4 C10.576875 3.71125 9.15375 3.4225 7.6875 3.125 C4.41941308 2.4619099 2.85478326 1.90318884 0 0 Z " fill="#EBEBEB" transform="translate(99,154)"/>
<path d="M0 0 C2 2 2 2 2.01171875 4.828125 C1.90472656 5.95734375 1.79773437 7.0865625 1.6875 8.25 C1.58824219 9.36890625 1.48898438 10.4878125 1.38671875 11.640625 C1.02477567 14.78477703 0.55234172 17.88422617 0 21 C2.97 21 5.94 21 9 21 C9.66 19.02 10.32 17.04 11 15 C12.5625 16.5 12.5625 16.5 14 19 C13.96823234 21.77437543 13.50364148 24.25286467 13 27 C12.67 26.34 12.34 25.68 12 25 C9.54708639 24.60645698 9.54708639 24.60645698 6.6875 24.5 C2.92133699 24.2988698 0.27049031 23.92655962 -3 22 C-3.19402835 16.47019212 -2.64861989 12.33377022 -1 7 C-0.63049535 4.67212073 -0.28647533 2.33954855 0 0 Z " fill="#F3F3F3" transform="translate(61,105)"/>
<path d="M0 0 C3.6875 0.3125 3.6875 0.3125 6.1875 1.75 C8.16710714 5.13182887 7.92607826 7.31853043 7.29296875 11.1171875 C6.39989271 14.35530835 5.26178802 16.15566409 2.6875 18.3125 C-0.3125 18.9375 -0.3125 18.9375 -3.3125 18.3125 C-5.74549573 16.01101755 -7.01874552 14.01016689 -8.3125 10.9375 C-8.3125 5.6556196 -5.41596051 0.51093967 0 0 Z M0.6875 1.3125 C-2.44634514 2.81709629 -2.44634514 2.81709629 -5.3125 5.3125 C-5.7837229 9.14960078 -5.53131093 11.6560672 -4.3125 15.3125 C-0.3046077 16.43596201 -0.3046077 16.43596201 3.5 15.3125 C5.3368932 12.21878513 5.6875 9.90319824 5.6875 6.3125 C3.39550597 3.35199126 3.39550597 3.35199126 0.6875 1.3125 Z " fill="#D4D4D4" transform="translate(46.3125,82.6875)"/>
<path d="M0 0 C4.29 0.99 8.58 1.98 13 3 C12.34 8.28 11.68 13.56 11 19 C14.63 19.33 18.26 19.66 22 20 C22 20.66 22 21.32 22 22 C17.05632546 23.20577428 13.79137588 22.6290678 9 21 C7.91943941 17.02840314 8.14184386 14.57446843 9.4375 10.6875 C9.72496094 9.80449219 10.01242188 8.92148438 10.30859375 8.01171875 C10.53675781 7.34785156 10.76492187 6.68398437 11 6 C10.34 6 9.68 6 9 6 C9 5.34 9 4.68 9 4 C6.03 3.67 3.06 3.34 0 3 C0 2.01 0 1.02 0 0 Z " fill="#EEEEEE" transform="translate(198,179)"/>
<path d="M0 0 C1.79206547 0.14084796 3.58364917 0.28783701 5.375 0.4375 C6.87160156 0.55931641 6.87160156 0.55931641 8.3984375 0.68359375 C11 1 11 1 13 2 C12.67 3.32 12.34 4.64 12 6 C11.67 5.01 11.34 4.02 11 3 C7.7 2.67 4.4 2.34 1 2 C0.87625 3.4025 0.7525 4.805 0.625 6.25 C-0.2206979 14.6474228 -1.43674029 22.9440409 -4 31 C-5.98 31 -7.96 31 -10 31 C-10 30.67 -10 30.34 -10 30 C-8.35 30 -6.7 30 -5 30 C-5.03480469 28.948125 -5.03480469 28.948125 -5.0703125 27.875 C-5.18588717 21.79907425 -4.71723113 16.81950549 -3 11 C-2.63970964 9.56402259 -2.28547888 8.12651042 -1.9375 6.6875 C-1.36564858 4.43821774 -0.73391312 2.20173937 0 0 Z " fill="#E7E7E7" transform="translate(88,58)"/>
<path d="M0 0 C1.28339322 3.85017965 0.44990097 6.77546214 -0.375 10.625 C-0.51421875 11.31851563 -0.6534375 12.01203125 -0.796875 12.7265625 C-1.85956743 17.85956743 -1.85956743 17.85956743 -3 19 C-3.35066314 20.86823891 -3.65529699 22.74520142 -3.9375 24.625 C-4.66776704 29.2262314 -5.58876791 33.56469914 -7 38 C-7.66 38 -8.32 38 -9 38 C-8.03765159 29.52880149 -6.75427818 21.16907858 -5.0625 12.8125 C-4.90491211 11.99934326 -4.74732422 11.18618652 -4.58496094 10.34838867 C-3.72382209 6.23295606 -2.97936895 3.14913356 0 0 Z " fill="#E1E1E1" transform="translate(227,161)"/>
<path d="M0 0 C1.06283203 0.17402344 2.12566406 0.34804687 3.22070312 0.52734375 C8.2856564 1.38152075 13.1216186 2.27209589 17.9375 4.125 C17.9375 4.455 17.9375 4.785 17.9375 5.125 C15.93795254 5.16754356 13.93708364 5.16580783 11.9375 5.125 C11.4425 4.63 11.4425 4.63 10.9375 4.125 C8.77977412 3.7015753 6.6106458 3.33542033 4.4375 3 C3.2515625 2.81179687 2.065625 2.62359375 0.84375 2.4296875 C-0.59484375 2.27886719 -0.59484375 2.27886719 -2.0625 2.125 C-2.3925 2.455 -2.7225 2.785 -3.0625 3.125 C-9.82088335 2.9475071 -16.47961338 1.5676326 -23.0625 0.125 C-16.34166121 -4.17633682 -7.31644786 -1.25577498 0 0 Z " fill="#D8D8D8" transform="translate(81.0625,163.875)"/>
<path d="M0 0 C2.64 0.33 5.28 0.66 8 1 C8 1.33 8 1.66 8 2 C6.02 2 4.04 2 2 2 C1.67 4.64 1.34 7.28 1 10 C1.68707031 10.06058594 2.37414062 10.12117187 3.08203125 10.18359375 C4.43361328 10.30927734 4.43361328 10.30927734 5.8125 10.4375 C6.70582031 10.51871094 7.59914062 10.59992188 8.51953125 10.68359375 C11 11 11 11 14 12 C13.67 13.65 13.34 15.3 13 17 C11.0625 16.6875 11.0625 16.6875 9 16 C8.67 15.01 8.34 14.02 8 13 C6.88625 12.855625 5.7725 12.71125 4.625 12.5625 C1 12 1 12 -1 11 C-1.14285714 3.57142857 -1.14285714 3.57142857 0 0 Z " fill="#F2F2F2" transform="translate(173,119)"/>
<path d="M0 0 C2.97 0.495 2.97 0.495 6 1 C4.68 1.33 3.36 1.66 2 2 C1.88027832 2.65846924 1.76055664 3.31693848 1.63720703 3.99536133 C-0.24186198 14.33024089 -2.12093099 24.66512044 -4 35 C-4.33 35 -4.66 35 -5 35 C-5.55738242 22.75823061 -3.44418853 11.71024099 0 0 Z " fill="#EBEBEB" transform="translate(221,124)"/>
<path d="M0 0 C0.66 0 1.32 0 2 0 C2.01417969 0.845625 2.02835938 1.69125 2.04296875 2.5625 C2.34174354 9.66849504 2.72107951 15.7909065 8 21 C11.13170767 22.57708829 11.13170767 22.57708829 14 23 C14 23.33 14 23.66 14 24 C9.98791373 24.47762932 8.28450965 24.17851586 4.8125 22 C1.55757904 19.00204649 -0.1923557 15.33768513 -1 11 C-0.67 10.01 -0.34 9.02 0 8 C-0.66 7.67 -1.32 7.34 -2 7 C-1.34 4.69 -0.68 2.38 0 0 Z " fill="#E4E4E4" transform="translate(29,85)"/>
<path d="M0 0 C1.65 0 3.3 0 5 0 C4.58474956 5.13599224 4.02920244 10.1470866 2.9375 15.1875 C2.07356553 19.23839274 1.82032369 22.86744498 2 27 C1.01 26.67 0.02 26.34 -1 26 C-1.15490223 20.26861756 -0.65244885 15.10650794 0.5 9.5 C0.64308594 8.77296875 0.78617188 8.0459375 0.93359375 7.296875 C1.28233698 5.52990929 1.64019723 3.76474691 2 2 C1.34 2 0.68 2 0 2 C0 1.34 0 0.68 0 0 Z " fill="#E9E9E9" transform="translate(175,164)"/>
<path d="M0 0 C7.43238567 0.56793678 14.59575025 1.79091456 21.875 3.375 C22.89335937 3.58382812 23.91171875 3.79265625 24.9609375 4.0078125 C26.43046875 4.32492188 26.43046875 4.32492188 27.9296875 4.6484375 C29.24815674 4.92953369 29.24815674 4.92953369 30.59326172 5.21630859 C33.21095579 6.06869224 34.9046689 7.23778217 37 9 C31.00117299 8.20237203 25.06999988 7.12693679 19.125 6 C17.68253906 5.73316406 17.68253906 5.73316406 16.2109375 5.4609375 C15.29828125 5.28820312 14.385625 5.11546875 13.4453125 4.9375 C12.61531738 4.78152344 11.78532227 4.62554687 10.93017578 4.46484375 C9 4 9 4 8 3 C6.845 2.855625 5.69 2.71125 4.5 2.5625 C3.345 2.376875 2.19 2.19125 1 2 C0.67 1.34 0.34 0.68 0 0 Z " fill="#C5C5C5" transform="translate(0,134)"/>
<path d="M0 0 C2.14655501 0.30750371 4.29223285 0.6211366 6.4375 0.9375 C7.63246094 1.11152344 8.82742187 1.28554687 10.05859375 1.46484375 C13 2 13 2 14 3 C15.34747084 3.23075082 16.70377565 3.41153063 18.0625 3.5625 C19.361875 3.706875 20.66125 3.85125 22 4 C22.33 4.99 22.66 5.98 23 7 C14.81911794 6.4533512 6.98214061 4.82876132 -1 3 C-0.67 2.01 -0.34 1.02 0 0 Z " fill="#FAFAFA" transform="translate(79,165)"/>
<path d="M0 0 C1.65 0 3.3 0 5 0 C5.33 1.32 5.66 2.64 6 4 C5.40832031 4.15855469 4.81664062 4.31710938 4.20703125 4.48046875 C-1.13565876 6.05800039 -4.30185198 7.64923763 -8 12 C-9 13 -10 14 -11 15 C-10.67506385 11.4257023 -10.36129314 9.44287547 -8.0625 6.625 C-6 5 -6 5 -4 5 C-4 4.34 -4 3.68 -4 3 C-2.68 2.67 -1.36 2.34 0 2 C0 1.34 0 0.68 0 0 Z " fill="#F1F1F1" transform="translate(42,70)"/>
<path d="M0 0 C6.625 -0.125 6.625 -0.125 10 1 C10 1.66 10 2.32 10 3 C8.02 3.66 6.04 4.32 4 5 C6.31 6.98 8.62 8.96 11 11 C9.68 11.33 8.36 11.66 7 12 C5.821389 10.76125579 4.65747085 9.5085199 3.5 8.25 C2.8503125 7.55390625 2.200625 6.8578125 1.53125 6.140625 C0 4 0 4 0 0 Z " fill="#EAEAEA" transform="translate(197,134)"/>
<path d="M0 0 C0.5775 0.20625 1.155 0.4125 1.75 0.625 C-1.57851768 3.63843955 -4.06882813 4.07167544 -8.5 4.3125 C-9.57765625 4.37824219 -10.6553125 4.44398438 -11.765625 4.51171875 C-12.99539062 4.56779297 -12.99539062 4.56779297 -14.25 4.625 C-13.92 6.605 -13.59 8.585 -13.25 10.625 C-14.24 10.295 -15.23 9.965 -16.25 9.625 C-17.375 4.875 -17.375 4.875 -16.25 2.625 C-14.10546875 2.28125 -14.10546875 2.28125 -11.4375 2.125 C-7.4572954 1.88983282 -3.66165656 -0.61027609 0 0 Z " fill="#DFDFDF" transform="translate(183.25,136.375)"/>
<path d="M0 0 C0.66 0 1.32 0 2 0 C2.3434538 3.69212837 2.221621 5.60790131 0.375 8.875 C-2 11 -2 11 -5 11.625 C-8 11 -8 11 -10.4375 8.8125 C-12 6 -12 6 -11.75 3.1875 C-11.5025 2.465625 -11.255 1.74375 -11 1 C-9.5393715 3.64738916 -9 4.89448334 -9 8 C-6.08347826 8.16681109 -6.08347826 8.16681109 -3 8 C-0.4345406 5.4345406 -0.45953913 3.52313332 0 0 Z " fill="#DDDDDD" transform="translate(51,90)"/>
<path d="M0 0 C0.87462891 0.17337891 1.74925781 0.34675781 2.65039062 0.52539062 C4.01647461 0.81639648 4.01647461 0.81639648 5.41015625 1.11328125 C6.77043945 1.3752832 6.77043945 1.3752832 8.15820312 1.64257812 C12.7359495 2.58238036 15.82027773 3.38500262 19.47265625 6.42578125 C13.14516254 5.82406763 7.09669973 4.80426216 0.91015625 3.36328125 C0.09224609 3.17701172 -0.72566406 2.99074219 -1.56835938 2.79882812 C-3.55570271 2.34557438 -5.54167576 1.88631913 -7.52734375 1.42578125 C-4.12609731 -0.84171638 -3.77773499 -0.75371333 0 0 Z " fill="#D8D8D8" transform="translate(82.52734375,149.57421875)"/>
<path d="M0 0 C8.91 1.65 17.82 3.3 27 5 C27 5.33 27 5.66 27 6 C24.68756208 6.02685412 22.3750373 6.04632841 20.0625 6.0625 C18.77472656 6.07410156 17.48695313 6.08570312 16.16015625 6.09765625 C13 6 13 6 12 5 C10.15400312 4.60545777 8.29774178 4.25823134 6.4375 3.9375 C4.91962891 3.67259766 4.91962891 3.67259766 3.37109375 3.40234375 C2.19740234 3.20318359 2.19740234 3.20318359 1 3 C0.67 2.01 0.34 1.02 0 0 Z " fill="#E3E3E3" transform="translate(190,107)"/>
<path d="M0 0 C0.99 0 1.98 0 3 0 C3.51813655 8.84670181 2.8550995 17.94763926 -3 25 C-2.05404162 16.86475797 -0.00650998 8.9295731 2 1 C1.34 0.67 0.68 0.34 0 0 Z " fill="#BDBDBD" transform="translate(96,61)"/>
<path d="M0 0 C0 0.66 0 1.32 0 2 C0.66 2.33 1.32 2.66 2 3 C-5.76783437 2.20736384 -13.3629639 0.58110513 -21 -1 C-14.5690789 -4.61913309 -6.90352672 -1.43071077 0 0 Z " fill="#E1E1E1" transform="translate(198,123)"/>
<path d="M0 0 C0.33 0.66 0.66 1.32 1 2 C0.67 2.99 0.34 3.98 0 5 C-0.23294845 11.08568662 -0.23294845 11.08568662 1 17 C-0.65 17 -2.3 17 -4 17 C-4.48736475 10.29873464 -3.07708804 5.93438408 0 0 Z " fill="#F0F0F0" transform="translate(82,71)"/>
<path d="M0 0 C1.10408203 0.22139648 1.10408203 0.22139648 2.23046875 0.44726562 C4.03056123 0.8096219 5.82807253 1.18476109 7.625 1.5625 C7.625 2.2225 7.625 2.8825 7.625 3.5625 C0.18269906 3.01548368 -7.05660944 2.02051591 -14.375 0.5625 C-14.375 0.2325 -14.375 -0.0975 -14.375 -0.4375 C-9.1641013 -1.67858155 -5.12573497 -1.08910282 0 0 Z " fill="#D5D5D5" transform="translate(245.375,103.4375)"/>
<path d="M0 0 C0.33 0.99 0.66 1.98 1 3 C1.62648437 2.97679687 2.25296875 2.95359375 2.8984375 2.9296875 C3.71570312 2.91164062 4.53296875 2.89359375 5.375 2.875 C6.18710937 2.85179687 6.99921875 2.82859375 7.8359375 2.8046875 C10 3 10 3 12 5 C12.125 7.625 12.125 7.625 12 10 C12.66 10 13.32 10 14 10 C13.67 10.66 13.34 11.32 13 12 C12.01 12.33 11.02 12.66 10 13 C10.33 10.69 10.66 8.38 11 6 C10.37351562 5.93941406 9.74703125 5.87882812 9.1015625 5.81640625 C8.28429687 5.73261719 7.46703125 5.64882812 6.625 5.5625 C5.40683594 5.44068359 5.40683594 5.44068359 4.1640625 5.31640625 C2 5 2 5 0 4 C0 2.68 0 1.36 0 0 Z " fill="#CDCDCD" transform="translate(57,61)"/>
<path d="M0 0 C2.00544379 6.36576475 1.05868365 14.17531372 -1.5625 20.25 C-2.036875 21.1575 -2.51125 22.065 -3 23 C-3.8950292 20.06387762 -4.0294562 17.97288496 -3.4765625 14.9609375 C-3.3425 14.21585938 -3.2084375 13.47078125 -3.0703125 12.703125 C-2.84988281 11.55070312 -2.84988281 11.55070312 -2.625 10.375 C-2.41617188 9.21097656 -2.41617188 9.21097656 -2.203125 8.0234375 C-1.1497682 2.2995364 -1.1497682 2.2995364 0 0 Z " fill="#D1D1D1" transform="translate(74,101)"/>
<path d="M0 0 C0.33 0 0.66 0 1 0 C1.042721 1.66611905 1.04063832 3.33382885 1 5 C0.67 5.33 0.34 5.66 0 6 C-0.56274765 8.68544346 -1.08061023 11.36253387 -1.5625 14.0625 C-1.70107422 14.82111328 -1.83964844 15.57972656 -1.98242188 16.36132812 C-2.32511827 18.24024975 -2.6630073 20.12004701 -3 22 C-3.33 22 -3.66 22 -4 22 C-4.43644184 14.54815966 -3.47216457 8.0578377 -1 1 C-0.67 0.67 -0.34 0.34 0 0 Z " fill="#DDDDDD" transform="translate(95,82)"/>
<path d="M0 0 C1.79206547 0.14084796 3.58364917 0.28783701 5.375 0.4375 C6.87160156 0.55931641 6.87160156 0.55931641 8.3984375 0.68359375 C11 1 11 1 13 2 C12.67 3.32 12.34 4.64 12 6 C11.67 5.01 11.34 4.02 11 3 C7.7 2.67 4.4 2.34 1 2 C1 3.98 1 5.96 1 8 C0.01 8 -0.98 8 -2 8 C-1.47731534 5.23723823 -0.89130413 2.6739124 0 0 Z " fill="#F1F1F1" transform="translate(88,58)"/>
<path d="M0 0 C0.66 0 1.32 0 2 0 C2 0.99 2 1.98 2 3 C5.96 3.33 9.92 3.66 14 4 C14 4.66 14 5.32 14 6 C9.05632546 7.20577428 5.79137588 6.6290678 1 5 C0.67 3.35 0.34 1.7 0 0 Z " fill="#FBFBFB" transform="translate(206,195)"/>
<path d="M0 0 C2 2 2 2 2.375 5.0625 C1.9081285 9.96465078 0.20948112 13.65008404 -2 18 C-3.51553092 14.02549507 -2.49888623 10.79518851 -1.5625 6.75 C-1.27503906 5.48671875 -0.98757812 4.2234375 -0.69140625 2.921875 C-0.46324219 1.95765625 -0.23507813 0.9934375 0 0 Z " fill="#CBCBCB" transform="translate(228,146)"/>
<path d="M0 0 C14.78132118 0.77904328 14.78132118 0.77904328 21 3 C21 3.33 21 3.66 21 4 C13.48193151 4.44032071 7.15775723 3.28612778 0 1 C0 0.67 0 0.34 0 0 Z " fill="#E5E5E5" transform="translate(57,146)"/>
<path d="M0 0 C0.33 0 0.66 0 1 0 C1.46251848 8.31248491 1.22550835 14.69967977 -3 22 C-3.9867097 18.88925167 -3.96838493 16.83557243 -3.22265625 13.671875 C-3.03896484 12.87265625 -2.85527344 12.0734375 -2.66601562 11.25 C-2.46685547 10.425 -2.26769531 9.6 -2.0625 8.75 C-1.86720703 7.90953125 -1.67191406 7.0690625 -1.47070312 6.203125 C-0.98857714 4.13351102 -0.49536137 2.06648605 0 0 Z " fill="#B0B0B0" transform="translate(90,98)"/>
<path d="M0 0 C1.5625 1.5 1.5625 1.5 3 4 C2.96823234 6.77437543 2.50364148 9.25286467 2 12 C1.67 11.34 1.34 10.68 1 10 C-1.01669827 8.86649466 -1.01669827 8.86649466 -3 8 C-2.01 5.36 -1.02 2.72 0 0 Z " fill="#FDFDFD" transform="translate(72,120)"/>
<path d="M0 0 C0.78375 0.04125 1.5675 0.0825 2.375 0.125 C1.42367187 0.41503906 1.42367187 0.41503906 0.453125 0.7109375 C-1.94888702 2.0161392 -1.94888702 2.0161392 -2.453125 5.1640625 C-2.66195312 6.93910156 -2.66195312 6.93910156 -2.875 8.75 C-3.02453125 9.93851563 -3.1740625 11.12703125 -3.328125 12.3515625 C-3.42609375 13.26679687 -3.5240625 14.18203125 -3.625 15.125 C-4.615 14.465 -5.605 13.805 -6.625 13.125 C-6.34312064 11.33176747 -6.0491719 9.54042874 -5.75 7.75 C-5.58757812 6.75226563 -5.42515625 5.75453125 -5.2578125 4.7265625 C-4.40231074 1.2094997 -3.68422445 0.17543926 0 0 Z " fill="#DBDBDB" transform="translate(145.625,84.875)"/>
<path d="M0 0 C6.33393082 -0.34548714 11.10261508 0.70657253 17 3 C17 3.66 17 4.32 17 5 C15.10306139 4.71561048 13.20747973 4.42216208 11.3125 4.125 C10.25675781 3.96257812 9.20101562 3.80015625 8.11328125 3.6328125 C5.20205086 3.04106931 2.71044393 2.1968194 0 1 C0 0.67 0 0.34 0 0 Z " fill="#EEEEEE" transform="translate(174,105)"/>
<path d="M0 0 C4.39453125 0.73242188 4.39453125 0.73242188 8.7890625 1.46484375 C10.37847656 1.72974609 10.37847656 1.72974609 12 2 C14 2.33333333 16 2.66666667 18 3 C13.7988135 5.800791 10.80639289 4.89098099 6 4 C3.97975201 3.3974699 1.96766531 2.75679435 0 2 C0 1.34 0 0.68 0 0 Z " fill="#E2E2E2" transform="translate(159,101)"/>
<path d="M0 0 C5.852795 0.51482919 11.3297637 1.45357192 17 3 C17 3.33 17 3.66 17 4 C10.88514973 4.09706112 5.06696699 3.77040851 -1 3 C-0.67 2.01 -0.34 1.02 0 0 Z " fill="#F7F7F7" transform="translate(143,83)"/>
<path d="M0 0 C2.875 -0.125 2.875 -0.125 6 0 C6.66 0.66 7.32 1.32 8 2 C7.9375 3.9375 7.9375 3.9375 7 6 C4.4375 7.75 4.4375 7.75 2 9 C2.66 7.35 3.32 5.7 4 4 C2.68 2.68 1.36 1.36 0 0 Z " fill="#D7D7D7" transform="translate(205,146)"/>
<path d="M0 0 C0.89203125 0.20367187 1.7840625 0.40734375 2.703125 0.6171875 C3.37859375 0.78476563 4.0540625 0.95234375 4.75 1.125 C4.75 1.785 4.75 2.445 4.75 3.125 C5.74 3.455 6.73 3.785 7.75 4.125 C1.9690275 3.49434845 -3.5943706 2.47344868 -9.25 1.125 C-5.82794357 -1.03377391 -3.8855015 -0.92025036 0 0 Z " fill="#D0D0D0" transform="translate(165.25,86.875)"/>
<path d="M0 0 C6.49850211 0.51553879 12.66226532 1.46667709 19 3 C19 3.33 19 3.66 19 4 C17.35425434 4.02688151 15.70838587 4.04634123 14.0625 4.0625 C13.14597656 4.07410156 12.22945312 4.08570313 11.28515625 4.09765625 C9 4 9 4 8 3 C6.845 2.855625 5.69 2.71125 4.5 2.5625 C3.345 2.376875 2.19 2.19125 1 2 C0.67 1.34 0.34 0.68 0 0 Z " fill="#E4E4E4" transform="translate(0,134)"/>
<path d="M0 0 C0.66 0 1.32 0 2 0 C1.67 3.63 1.34 7.26 1 11 C0.01 11.33 -0.98 11.66 -2 12 C-2.17835515 7.45194365 -1.99785435 4.1205746 0 0 Z " fill="#F0F0F0" transform="translate(71,59)"/>
<path d="M0 0 C0.33 0.66 0.66 1.32 1 2 C1.99 2 2.98 2 4 2 C4 5.3 4 8.6 4 12 C3.01 12 2.02 12 1 12 C0.96261719 11.37351562 0.92523438 10.74703125 0.88671875 10.1015625 C0.82097656 9.28429688 0.75523438 8.46703125 0.6875 7.625 C0.62949219 6.81289063 0.57148437 6.00078125 0.51171875 5.1640625 C0.17009472 2.62078662 0.17009472 2.62078662 -3 1 C-2.01 0.67 -1.02 0.34 0 0 Z " fill="#F5F5F5" transform="translate(57,52)"/>
<path d="M0 0 C2.00706464 6.27207701 0.98284456 11.92753853 -1 18 C-1.66 18 -2.32 18 -3 18 C-2.69112547 15.56199034 -2.37805338 13.12464633 -2.0625 10.6875 C-1.97548828 9.99720703 -1.88847656 9.30691406 -1.79882812 8.59570312 C-1.40789865 5.59857712 -0.9584996 2.87549881 0 0 Z " fill="#CCCCCC" transform="translate(221,181)"/>
<path d="M0 0 C1.26823485 3.65393537 0.75715321 6.49070026 0.0625 10.25 C-0.13214844 11.32765625 -0.32679688 12.4053125 -0.52734375 13.515625 C-0.68332031 14.33546875 -0.83929688 15.1553125 -1 16 C-3 13 -3 13 -2.79296875 10.625 C-2.59316406 9.75875 -2.39335937 8.8925 -2.1875 8 C-1.99542969 7.13375 -1.80335938 6.2675 -1.60546875 5.375 C-1.1435459 3.56307038 -0.59130886 1.77392657 0 0 Z " fill="#E6E6E6" transform="translate(210,182)"/>
<path d="M0 0 C1.98073365 0.280828 3.95958448 0.57496614 5.9375 0.875 C7.59072266 1.11863281 7.59072266 1.11863281 9.27734375 1.3671875 C10.17582031 1.57601562 11.07429687 1.78484375 12 2 C12.33 2.66 12.66 3.32 13 4 C8.71 3.67 4.42 3.34 0 3 C0 2.01 0 1.02 0 0 Z " fill="#F2F2F2" transform="translate(224,99)"/>
<path d="M0 0 C2.0625 0.4375 2.0625 0.4375 4 1 C3.01 2.485 3.01 2.485 2 4 C1.34 4 0.68 4 0 4 C0 6.31 0 8.62 0 11 C-0.99 11.495 -0.99 11.495 -2 12 C-1.85962479 10.18706911 -1.71255111 8.3746557 -1.5625 6.5625 C-1.48128906 5.55316406 -1.40007812 4.54382813 -1.31640625 3.50390625 C-1 1 -1 1 0 0 Z " fill="#FDFDFD" transform="translate(76,97)"/>
<path d="M0 0 C1.65 0 3.3 0 5 0 C5 1.98 5 3.96 5 6 C4.01 6.33 3.02 6.66 2 7 C2 5.35 2 3.7 2 2 C1.34 2 0.68 2 0 2 C0 1.34 0 0.68 0 0 Z " fill="#F1F1F1" transform="translate(175,164)"/>
<path d="M0 0 C4.62 0.66 9.24 1.32 14 2 C14 2.33 14 2.66 14 3 C4.58997722 4.51708428 4.58997722 4.51708428 0 2 C0 1.34 0 0.68 0 0 Z " fill="#DBDBDB" transform="translate(52,159)"/>
<path d="M0 0 C0 0.66 0 1.32 0 2 C0.99 2.33 1.98 2.66 3 3 C1.58249437 2.88490339 0.16598831 2.75746342 -1.25 2.625 C-2.03890625 2.55539063 -2.8278125 2.48578125 -3.640625 2.4140625 C-6.085877 1.98492887 -7.84836903 1.21399362 -10 0 C-6.42355152 -1.2380014 -3.66305234 -0.74926071 0 0 Z " fill="#CACACA" transform="translate(187,121)"/>
<path d="M0 0 C0.66 0 1.32 0 2 0 C1.67 3.63 1.34 7.26 1 11 C0.67 10.01 0.34 9.02 0 8 C-0.66 7.67 -1.32 7.34 -2 7 C-1.34 4.69 -0.68 2.38 0 0 Z " fill="#F5F5F5" transform="translate(29,85)"/>
<path d="M0 0 C0 0.66 0 1.32 0 2 C0.99 2.33 1.98 2.66 3 3 C1.56163249 2.88541307 0.12429034 2.75790884 -1.3125 2.625 C-2.11300781 2.55539063 -2.91351563 2.48578125 -3.73828125 2.4140625 C-6 2 -6 2 -9 0 C-5.67465243 -1.10844919 -3.37817425 -0.84454356 0 0 Z " fill="#CBCBCB" transform="translate(199,94)"/>
<path d="M0 0 C1.60080151 4.00200378 0.29279692 7.04556236 -1 11 C-2.98 11 -4.96 11 -7 11 C-7 10.67 -7 10.34 -7 10 C-5.35 10 -3.7 10 -2 10 C-2 7.36 -2 4.72 -2 2 C-1.34 2 -0.68 2 0 2 C0 1.34 0 0.68 0 0 Z " fill="#C0C0C0" transform="translate(85,78)"/>
<path d="M0 0 C4.29 0.66 8.58 1.32 13 2 C13 2.33 13 2.66 13 3 C8.71 3 4.42 3 0 3 C0 2.01 0 1.02 0 0 Z " fill="#F5F5F5" transform="translate(184,154)"/>
<path d="M0 0 C1.15941038 3.47823115 0.70820884 5.45895578 0 9 C-2 8 -2 8 -2.8125 5.625 C-3 3 -3 3 -1.5625 1.1875 C-1.046875 0.795625 -0.53125 0.40375 0 0 Z " fill="#F5F5F5" transform="translate(69,72)"/>
<path d="M0 0 C0.3449145 1.33038449 0.67516582 2.66457061 1 4 C1.4021875 5.2065625 1.4021875 5.2065625 1.8125 6.4375 C2 9 2 9 0.0625 11.8125 C-0.618125 12.534375 -1.29875 13.25625 -2 14 C-1.85866501 12.22880197 -1.71176792 10.45804713 -1.5625 8.6875 C-1.48128906 7.70136719 -1.40007812 6.71523437 -1.31640625 5.69921875 C-1 3 -1 3 0 0 Z " fill="#C6C6C6" transform="translate(189,168)"/>
<path d="M0 0 C0.33 0 0.66 0 1 0 C1.66 3.96 2.32 7.92 3 12 C1.68 11.34 0.36 10.68 -1 10 C-0.67 6.7 -0.34 3.4 0 0 Z " fill="#C3C3C3" transform="translate(30,90)"/>
<path d="M0 0 C1.98 0 3.96 0 6 0 C6 1.65 6 3.3 6 5 C6.66 5 7.32 5 8 5 C7.67 5.66 7.34 6.32 7 7 C6.01 7.33 5.02 7.66 4 8 C4.33 5.69 4.66 3.38 5 1 C3.35 1 1.7 1 0 1 C0 0.67 0 0.34 0 0 Z " fill="#ABABAB" transform="translate(63,66)"/>
<path d="M0 0 C0.598125 0.763125 1.19625 1.52625 1.8125 2.3125 C3.46959332 4.3483575 5.10297674 6.1978279 7 8 C2.25 7.25 2.25 7.25 0 5 C-0.125 2.375 -0.125 2.375 0 0 Z " fill="#D4D4D4" transform="translate(192,144)"/>
<path d="M0 0 C0 0.66 0 1.32 0 2 C-3.3 1.67 -6.6 1.34 -10 1 C-5.64467851 -1.17766075 -4.53374042 -1.03039555 0 0 Z " fill="#D9D9D9" transform="translate(224,99)"/>
<path d="M0 0 C2.64 0.33 5.28 0.66 8 1 C8 1.66 8 2.32 8 3 C6.02 3.33 4.04 3.66 2 4 C1.34 2.68 0.68 1.36 0 0 Z " fill="#E7E7E7" transform="translate(212,198)"/>
<path d="M0 0 C1.98 0 3.96 0 6 0 C6.93065133 2.60582371 7.14917407 3.64198224 6.0625 6.25 C5.5365625 7.11625 5.5365625 7.11625 5 8 C4.67 6.02 4.34 4.04 4 2 C2.68 2 1.36 2 0 2 C0 1.34 0 0.68 0 0 Z " fill="#C6C6C6" transform="translate(75,96)"/>
<path d="M0 0 C0.33 0 0.66 0 1 0 C1.08159574 4.16138263 0.98248524 7.9472484 0 12 C-0.33 12 -0.66 12 -1 12 C-1.92470553 7.28400182 -2.22923777 4.32734391 0 0 Z " fill="#D0D0D0" transform="translate(61,113)"/>
<path d="M0 0 C1.4606285 2.64738916 2 3.89448334 2 7 C2.66 7.33 3.32 7.66 4 8 C2.68 7.67 1.36 7.34 0 7 C-0.38133299 5.0085944 -0.71325582 3.00720923 -1 1 C-0.67 0.67 -0.34 0.34 0 0 Z " fill="#F0F0F0" transform="translate(40,91)"/>
<path d="" fill="#FFFFFF" transform="translate(0,0)"/>
</svg>
