<?xml version="1.0" encoding="UTF-8"?>
<svg version="1.1" xmlns="http://www.w3.org/2000/svg" width="425" height="166">
<path d="M0 0 C140.25 0 280.5 0 425 0 C425 54.78 425 109.56 425 166 C284.75 166 144.5 166 0 166 C0 111.22 0 56.44 0 0 Z " fill="#FEFEFE" transform="translate(0,0)"/>
<path d="M0 0 C2.27734375 -0.3984375 2.27734375 -0.3984375 4.9375 -0.375 C6.25041016 -0.38660156 6.25041016 -0.38660156 7.58984375 -0.3984375 C10 0 10 0 11.63232422 1.0690918 C13.68685773 3.96971757 13.37032578 6.87333541 13.29296875 10.29296875 C13.28872391 10.99899734 13.28447906 11.70502594 13.28010559 12.43244934 C13.26333034 14.68452303 13.22568243 16.93569742 13.1875 19.1875 C13.17245157 20.71548185 13.15876344 22.24347776 13.14648438 23.77148438 C13.11343089 27.51466872 13.06165832 31.25718196 13 35 C13.721875 34.9175 14.44375 34.835 15.1875 34.75 C18.97933986 35.08705243 20.4192922 36.23859734 23 39 C23.61523438 41.83740234 23.61523438 41.83740234 23.59375 45.0859375 C23.59117188 46.26414063 23.58859375 47.44234375 23.5859375 48.65625 C23.55757813 49.8834375 23.52921875 51.110625 23.5 52.375 C23.50386719 54.20417969 23.50386719 54.20417969 23.5078125 56.0703125 C23.43969424 62.30994477 23.12211826 66.47409946 20 72 C19.34 72 18.68 72 18 72 C18 73.32 18 74.64 18 76 C16.68 76.99 15.36 77.98 14 79 C13.67 82.63 13.34 86.26 13 90 C-3.17 90 -19.34 90 -36 90 C-36.33 86.37 -36.66 82.74 -37 79 C-39.87725832 76.10134666 -39.87725832 76.10134666 -43 74 C-43.875 71.1875 -43.875 71.1875 -44 69 C-44.66 69 -45.32 69 -46 69 C-47.20250252 65.39249244 -47.1433394 62.09430851 -47.1328125 58.33984375 C-47.13376923 57.59416641 -47.13472595 56.84848907 -47.13571167 56.08021545 C-47.13639151 54.50586869 -47.1345509 52.9315191 -47.13037109 51.35717773 C-47.1250125 48.9431329 -47.13032655 46.52927348 -47.13671875 44.11523438 C-47.13605808 42.58593709 -47.13477715 41.05663992 -47.1328125 39.52734375 C-47.13483673 38.80336899 -47.13686096 38.07939423 -47.13894653 37.33348083 C-47.11496698 32.22993395 -47.11496698 32.22993395 -46 30 C-42.47005387 28.82335129 -39.70544587 28.80149397 -36 29 C-35.01 29.66 -34.02 30.32 -33 31 C-32.731875 30.401875 -32.46375 29.80375 -32.1875 29.1875 C-30.14925373 25.43283582 -30.14925373 25.43283582 -28 24 C-25.28184714 23.7470234 -22.74088051 23.8652026 -20 24 C-20 24.66 -20 25.32 -20 26 C-19.34 26 -18.68 26 -18 26 C-17.21625 25.195625 -16.4325 24.39125 -15.625 23.5625 C-11.97560976 20 -11.97560976 20 -9 20 C-6.98366202 20.96663394 -4.98188672 21.9645653 -3 23 C-2.98018066 22.40985107 -2.96036133 21.81970215 -2.93994141 21.21166992 C-2.84465341 18.53649904 -2.73499061 15.86210502 -2.625 13.1875 C-2.57859375 11.7943457 -2.57859375 11.7943457 -2.53125 10.37304688 C-2.49257813 9.48037109 -2.45390625 8.58769531 -2.4140625 7.66796875 C-2.3826416 6.84578857 -2.3512207 6.0236084 -2.31884766 5.17651367 C-2 3 -2 3 0 0 Z " fill="#FCB64D" transform="translate(58,40)"/>
<path d="M0 0 C3.3 0 6.6 0 10 0 C10 3.63 10 7.26 10 11 C10.85464844 10.98839844 11.70929688 10.97679687 12.58984375 10.96484375 C13.69457031 10.95582031 14.79929688 10.94679688 15.9375 10.9375 C17.03964844 10.92589844 18.14179688 10.91429687 19.27734375 10.90234375 C22 11 22 11 23 12 C23.04092937 14.33297433 23.04241723 16.66705225 23 19 C23.66 19 24.32 19 25 19 C24.98839844 18.19175781 24.97679687 17.38351563 24.96484375 16.55078125 C24.95582031 15.48214844 24.94679687 14.41351563 24.9375 13.3125 C24.92589844 12.25675781 24.91429687 11.20101563 24.90234375 10.11328125 C24.99134575 7.27589738 25.35060162 4.7561081 26 2 C29.3 2 32.6 2 36 2 C36.30674579 12.42935674 35.14373915 22.65007328 34 33 C36.31 33 38.62 33 41 33 C41.33 22.77 41.66 12.54 42 2 C45.63 2 49.26 2 53 2 C53.65253293 16.86325017 51.48405078 31.44374146 49.42578125 46.1328125 C47.85242023 57.38549054 46.91787478 68.67708494 46 80 C42.03611362 80.07622858 38.8726592 79.9681648 35 79 C35.33 73.72 35.66 68.44 36 63 C36.66 63 37.32 63 38 63 C38.33 55.74 38.66 48.48 39 41 C36.03 41.495 36.03 41.495 33 42 C31.515 58.335 31.515 58.335 30 75 C26.7 75 23.4 75 20 75 C19.75707529 66.60560185 20.17974227 58.59151531 21.21386719 50.27832031 C22.37297233 40.55586184 22.66125564 30.77952199 23 21 C22.23969482 20.94465088 21.47938965 20.88930176 20.69604492 20.83227539 C17.19312233 20.5766905 13.69031143 20.31960381 10.1875 20.0625 C8.99189453 19.97548828 7.79628906 19.88847656 6.56445312 19.79882812 C-0.63143911 19.26943006 -7.81629459 18.67518315 -15 18 C-15 14.7 -15 11.4 -15 8 C-10.05 8 -5.1 8 0 8 C0 5.36 0 2.72 0 0 Z " fill="#0B0B0B" transform="translate(163,18)"/>
<path d="M0 0 C9.50581189 -0.1858486 18.75768652 0.42556371 28.19338989 1.42416382 C32.62990858 1.89258576 37.06877175 2.33745781 41.5078125 2.78125 C42.47302322 2.87790451 43.43823395 2.97455902 44.43269348 3.07414246 C60.52281187 4.66603002 76.63973563 5.97652232 92.75073242 7.33666992 C94.57660385 7.49159912 94.57660385 7.49159912 96.43936157 7.6496582 C98.72542737 7.84347592 101.0116143 8.03587248 103.29794312 8.2265625 C108.88578336 8.70006289 114.44140492 9.25676508 120 10 C120 10.66 120 11.32 120 12 C122.31 12 124.62 12 127 12 C126.67 16.29 126.34 20.58 126 25 C108.10828149 25.43638338 90.41394237 22.97676459 72.69921875 20.72265625 C57.29922851 18.76608966 41.94551439 17.55470389 26.44189453 16.78491211 C17.19809352 16.30646264 8.16322788 15.33121955 -1 14 C-0.67 9.38 -0.34 4.76 0 0 Z " fill="#050505" transform="translate(112,109)"/>
<path d="M0 0 C24.02101377 1.75201252 48.00853858 3.88771831 72 6 C72 6.66 72 7.32 72 8 C73.18207031 8.03738281 74.36414063 8.07476562 75.58203125 8.11328125 C93.44200651 8.76566007 111.20610462 10.39430797 129 12 C129 16.95 129 21.9 129 27 C121.125 27 121.125 27 117 26 C117 25.34 117 24.68 117 24 C116.3824585 24.02175293 115.76491699 24.04350586 115.12866211 24.06591797 C104.54305661 24.26052334 94.08799126 23.13081862 83.5625 22.125 C81.67517693 21.94871782 79.78780726 21.77293385 77.90039062 21.59765625 C73.18968028 21.15877668 68.47968573 20.71270974 63.76992798 20.26373291 C61.06639147 20.00632133 58.36269072 19.75070903 55.65893555 19.49560547 C43.33088286 18.33036902 31.00842456 17.11313492 18.6875 15.875 C16.85612456 15.69135866 15.02474437 15.50776477 13.19335938 15.32421875 C8.79551829 14.88335521 4.39774063 14.4418644 0 14 C0 9.38 0 4.76 0 0 Z " fill="#040404" transform="translate(264,40)"/>
<path d="M0 0 C2.86634535 1.91562684 4.52082268 3.66385375 6.3671875 6.58203125 C7.48606674 13.54198876 7.13487981 20.55372356 3.3671875 26.58203125 C-1.54520948 31.49442823 -5.68127578 33.14655862 -12.4453125 34.14453125 C-17.95415194 34.02777357 -21.92603371 30.36571416 -25.6328125 26.58203125 C-29.15418526 21.42255154 -28.16796487 14.52289999 -27.6328125 8.58203125 C-26.39561892 4.1592494 -23.96664715 1.551436 -20.0703125 -0.79296875 C-12.16352313 -4.53072372 -7.65940826 -3.75812087 0 0 Z " fill="#0C0C0C" transform="translate(175.6328125,43.41796875)"/>
<path d="M0 0 C1.45823212 -0.0270043 2.91660675 -0.04639787 4.375 -0.0625 C5.18710937 -0.07410156 5.99921875 -0.08570312 6.8359375 -0.09765625 C9 0 9 0 11 1 C10.69928036 15.22403887 9.57656036 29.29900084 8.0625 43.4375 C7.97713989 44.23730286 7.89177979 45.03710571 7.80383301 45.86114502 C6.651683 56.58899668 5.3717997 67.29812716 4 78 C0.7 78 -2.6 78 -6 78 C-6 72.39 -6 66.78 -6 61 C-12.93 60.505 -12.93 60.505 -20 60 C-20 57.36 -20 54.72 -20 52 C-14.72 52 -9.44 52 -4 52 C-4.02964844 49.8446875 -4.05929687 47.689375 -4.08984375 45.46875 C-4.12963151 37.41810165 -3.43323405 29.50265339 -2.5625 21.5 C-2.42779297 20.19546875 -2.29308594 18.8909375 -2.15429688 17.546875 C-1.54050466 11.67842263 -0.85843994 5.83831712 0 0 Z " fill="#111111" transform="translate(351,74)"/>
<path d="M0 0 C8.82337326 -0.24851332 17.42374312 0.52867997 26.1875 1.5 C27.534448 1.64506343 28.88145307 1.78959797 30.22851562 1.93359375 C33.4862739 2.28389034 36.74336164 2.6394653 40 3 C40 5.97 40 8.94 40 12 C35.05 11.67 30.1 11.34 25 11 C26.87284686 16.61854059 28.11358311 19.0769741 33 22 C35.33948245 22.90484992 37.53769871 23.45829372 40 24 C40 24.66 40 25.32 40 26 C39.34 26 38.68 26 38 26 C37.855625 26.598125 37.71125 27.19625 37.5625 27.8125 C37.1127561 29.56150404 36.57107659 31.28677023 36 33 C31.02833396 32.526508 27.89003364 31.14907485 24 28 C24 27.01 24 26.02 24 25 C21.35261084 23.5393715 20.10551666 23 17 23 C16.01 23.495 15.02 23.99 14 24.5 C11 26 11 26 8 26 C8 26.66 8 27.32 8 28 C4.5980513 30.09350689 1.94727588 30.17942163 -2 30 C-2.99 27.03 -3.98 24.06 -5 21 C-4.030625 20.95875 -3.06125 20.9175 -2.0625 20.875 C2.986342 20.1434331 7.36846228 17.52799082 11 14 C11.66 12.02 12.32 10.04 13 8 C8.38 8 3.76 8 -1 8 C-0.67 5.36 -0.34 2.72 0 0 Z " fill="#080808" transform="translate(302,75)"/>
<path d="M0 0 C6.56346811 -0.19624988 12.88527966 -0.13092957 19.375 0.9375 C29.50302365 2.56028561 39.76307831 2.67455638 50 3 C50 5.31 50 7.62 50 10 C43.4 10 36.8 10 30 10 C30 13.3 30 16.6 30 20 C29.71286761 23.22511203 29.39524659 26.41495675 29 29.625 C28.90460938 30.43839844 28.80921875 31.25179687 28.7109375 32.08984375 C28.47909478 34.06050691 28.24030577 36.03035093 28 38 C26.741875 38.020625 25.48375 38.04125 24.1875 38.0625 C23.12595703 38.07990234 23.12595703 38.07990234 22.04296875 38.09765625 C20 38 20 38 17 37 C16.88842849 27.92551747 17.05757182 19.03721311 18 10 C17.11957031 10.01160156 16.23914063 10.02320312 15.33203125 10.03515625 C13.58986328 10.04869141 13.58986328 10.04869141 11.8125 10.0625 C10.66394531 10.07410156 9.51539063 10.08570312 8.33203125 10.09765625 C5.40699414 10.01192832 2.83683709 9.67849023 0 9 C0 6.03 0 3.06 0 0 Z " fill="#0E0E0E" transform="translate(293,109)"/>
<path d="M0 0 C3.3 0 6.6 0 10 0 C10 3.96 10 7.92 10 12 C12.165625 11.9690625 12.165625 11.9690625 14.375 11.9375 C18.75 11.875 18.75 11.875 21 13 C21 14.98 21 16.96 21 19 C9.12 18.67 -2.76 18.34 -15 18 C-15 14.7 -15 11.4 -15 8 C-10.05 8 -5.1 8 0 8 C0 5.36 0 2.72 0 0 Z " fill="#0D0D0D" transform="translate(163,18)"/>
<path d="M0 0 C7.52079264 -0.12354673 14.89068349 0.20971474 22.375 0.9375 C23.81166016 1.06801758 23.81166016 1.06801758 25.27734375 1.20117188 C29.58471118 1.60554921 33.76400825 2.09875526 38 3 C38.51985245 21.17558192 36.92000036 38.95403913 35 57 C38.3 57 41.6 57 45 57 C45 53.04 45 49.08 45 45 C45.33 45 45.66 45 46 45 C46.02685938 47.14576637 46.04633088 49.29162645 46.0625 51.4375 C46.07410156 52.63246094 46.08570313 53.82742187 46.09765625 55.05859375 C46 58 46 58 45 59 C43.14227838 58.91015699 41.28752015 58.75388139 39.4375 58.5625 C38.42558594 58.46066406 37.41367188 58.35882813 36.37109375 58.25390625 C35.58863281 58.17011719 34.80617187 58.08632812 34 58 C33.8823695 47.93605753 34.12198822 38.03442033 35 28 C34.34 28.99 33.68 29.98 33 31 C33.08701172 29.24623047 33.08701172 29.24623047 33.17578125 27.45703125 C33.22269449 25.9088942 33.26819298 24.36071383 33.3125 22.8125 C33.3753418 21.65911133 33.3753418 21.65911133 33.43945312 20.48242188 C33.53063394 16.23339575 33.43172278 14.54832483 30.71484375 11.09765625 C25.86517695 7.35050363 21.77546288 4.54651714 15.4375 5 C10.87157144 5.79647458 7.73265471 7.23783551 4 10 C1.26293086 14.4317498 0.59094372 17.82344566 0.625 23 C0.61726562 24.175625 0.60953125 25.35125 0.6015625 26.5625 C1.03441425 30.29690722 2.13475768 32.7629657 4 36 C2.125 35.8125 2.125 35.8125 0 35 C-3.14854204 28.76943441 -2.9421477 21.6908879 -1.2421875 15.03125 C0.5386838 10.15138218 0.5386838 10.15138218 2 8 C4.140625 7.23046875 4.140625 7.23046875 6 7 C6 6.34 6 5.68 6 5 C8.31 4.34 10.62 3.68 13 3 C8.71 2.34 4.42 1.68 0 1 C0 0.67 0 0.34 0 0 Z " fill="#E1E1E1" transform="translate(148,36)"/>
<path d="M0 0 C7.99976044 -0.20483028 15.26134446 -0.13480153 23 2 C19.2571173 3.2538657 15.90082554 2.93078505 12 2.625 C10.783125 2.53476562 9.56625 2.44453125 8.3125 2.3515625 C5 2 5 2 1 1 C1 5.62 1 10.24 1 15 C2.77117187 14.95746094 2.77117187 14.95746094 4.578125 14.9140625 C11.34048815 14.91670199 18.02941465 15.6863883 24.75 16.375 C27.32809891 16.63307323 29.90622451 16.89088001 32.484375 17.1484375 C33.15712967 17.21606293 33.82988434 17.28368835 34.52302551 17.35336304 C53.43982362 19.25287375 72.37540749 20.94224327 91.3125 22.625 C93.91471876 22.85671219 96.51693234 23.08848266 99.11914062 23.3203125 C105.41270093 23.88087833 111.70632424 24.44073205 118 25 C118 25.66 118 26.32 118 27 C121.96 27.33 125.92 27.66 130 28 C130 28.33 130 28.66 130 29 C118.2187584 29.35640731 106.69975746 28.25940704 95 27 C95 26.34 95 25.68 95 25 C94.32924942 25.0097435 93.65849884 25.019487 92.96742249 25.02952576 C86.38300985 25.08346844 79.92438436 24.77481503 73.37109375 24.16015625 C72.41477554 24.07374374 71.45845734 23.98733124 70.47315979 23.89830017 C68.47561975 23.71659044 66.47829931 23.53245112 64.48120117 23.34594727 C61.41448638 23.06035684 58.34699583 22.78456149 55.27929688 22.50976562 C53.33067627 22.33130579 51.38210651 22.15228977 49.43359375 21.97265625 C48.51597763 21.89032242 47.59836151 21.80798859 46.65293884 21.72315979 C45.80768143 21.64315231 44.96242401 21.56314484 44.09155273 21.48071289 C43.34751694 21.41187393 42.60348114 21.34303497 41.8368988 21.27210999 C40 21 40 21 38 20 C35.84515977 19.78764962 33.68477858 19.63051365 31.5234375 19.5 C30.21246094 19.4175 28.90148437 19.335 27.55078125 19.25 C26.15887405 19.16633523 24.76694673 19.08300451 23.375 19 C0.62200957 17.62200957 0.62200957 17.62200957 -1 16 C-1.09955104 14.06461065 -1.12968668 12.12544231 -1.125 10.1875 C-1.12757813 9.12917969 -1.13015625 8.07085937 -1.1328125 6.98046875 C-1.02063661 4.46310983 -0.7309121 2.39576745 0 0 Z " fill="#BBBBBB" transform="translate(263,39)"/>
<path d="M0 0 C2.64 0 5.28 0 8 0 C8.02684679 2.64590014 8.04676357 5.29153096 8.0625 7.9375 C8.07087891 8.69224609 8.07925781 9.44699219 8.08789062 10.22460938 C8.09652441 12.14994313 8.05224333 14.07535581 8 16 C7 17 7 17 3.11680603 17.1178894 C-2.23882097 17.05590776 -7.53848134 16.60975708 -12.86889648 16.11376953 C-13.91728699 16.01944641 -14.96567749 15.92512329 -16.0458374 15.82794189 C-19.48798235 15.51706489 -22.92954352 15.20020081 -26.37109375 14.8828125 C-28.77806285 14.66319942 -31.18505067 14.44379144 -33.59205627 14.22457886 C-38.62811397 13.76492701 -43.66387741 13.30219786 -48.69946289 12.83740234 C-55.13555525 12.24367064 -61.57239355 11.6585086 -68.00949001 11.07577705 C-72.97795964 10.62487812 -77.94595829 10.16894995 -82.91383553 9.71157455 C-85.28621442 9.49384928 -87.65874547 9.277775 -90.0314312 9.06341934 C-93.35535667 8.76245646 -96.67857571 8.4545914 -100.00170898 8.14501953 C-100.97084732 8.0587027 -101.93998566 7.97238586 -102.93849182 7.88345337 C-109.05799002 7.30415457 -114.99758558 6.32406532 -121 5 C-121 4.67 -121 4.34 -121 4 C-117.20809257 3.93347531 -113.70233311 3.89291203 -109.9465332 4.46557617 C-105.43881842 5.07599298 -100.96043183 5.3804443 -96.421875 5.6484375 C-94.53179793 5.76600856 -92.64174339 5.88394237 -90.75170898 6.00219727 C-89.77080292 6.06287384 -88.78989685 6.12355042 -87.77926636 6.18606567 C-46.47373168 8.76227801 -46.47373168 8.76227801 -28.20703125 12.01953125 C-21.2528578 13.20817759 -14.28493811 13.67705509 -7.25 14.125 C-5.96867187 14.21136719 -4.68734375 14.29773438 -3.3671875 14.38671875 C-0.24514067 14.59640846 2.87738458 14.7989549 6 15 C6.495 8.565 6.495 8.565 7 2 C4.69 2 2.38 2 0 2 C0 1.34 0 0.68 0 0 Z " fill="#AEAEAE" transform="translate(232,119)"/>
<path d="M0 0 C3.5 0.5 3.5 0.5 5.19921875 1.7578125 C7.58525263 4.95352153 6.89460867 8.68767896 6.5 12.5 C5.625 15.5 5.625 15.5 4.5 17.5 C1.63879744 18.93060128 -0.34010585 18.88692581 -3.5 18.5 C-6.11093174 15.71500615 -6.70651425 13.20668656 -6.875 9.5 C-6.62177535 4.15189529 -5.75217261 0.82173894 0 0 Z " fill="#D7D7D7" transform="translate(164.5,49.5)"/>
<path d="M0 0 C1.4540625 0.0309375 1.4540625 0.0309375 2.9375 0.0625 C2.96450675 2.97922884 2.98434237 5.89570677 3 8.8125 C3.00837891 9.6375 3.01675781 10.4625 3.02539062 11.3125 C3.02861328 12.11171875 3.03183594 12.9109375 3.03515625 13.734375 C3.04039307 14.4675293 3.04562988 15.20068359 3.05102539 15.95605469 C2.9350109 18.1086849 2.52823271 19.9939135 1.9375 22.0625 C1.2775 22.0625 0.6175 22.0625 -0.0625 22.0625 C-0.05089844 22.63097656 -0.03929687 23.19945313 -0.02734375 23.78515625 C0.02973194 28.66920484 -0.24293228 33.24753965 -1.0625 38.0625 C2.5675 38.3925 6.1975 38.7225 9.9375 39.0625 C9.9375 36.7525 9.9375 34.4425 9.9375 32.0625 C10.2675 32.0625 10.5975 32.0625 10.9375 32.0625 C10.9375 34.7025 10.9375 37.3425 10.9375 40.0625 C9.16700311 40.11660687 7.39603151 40.15534119 5.625 40.1875 C4.14580078 40.22230469 4.14580078 40.22230469 2.63671875 40.2578125 C-0.0625 40.0625 -0.0625 40.0625 -3.0625 38.0625 C-3.17664347 35.29837693 -3.10620641 32.80316977 -2.875 30.0625 C-2.81965088 29.27246582 -2.76430176 28.48243164 -2.70727539 27.66845703 C-2.0710257 19.10908206 -1.09965439 10.58126321 -0.0625 2.0625 C-0.7225 2.0625 -1.3825 2.0625 -2.0625 2.0625 C-2.12308594 2.70316406 -2.18367187 3.34382813 -2.24609375 4.00390625 C-2.73459412 9.04673313 -3.30029286 14.0537102 -4.0625 19.0625 C-4.3925 19.0625 -4.7225 19.0625 -5.0625 19.0625 C-4.92232174 16.08296641 -4.77563658 13.10400696 -4.625 10.125 C-4.58568359 9.27486328 -4.54636719 8.42472656 -4.50585938 7.54882812 C-4.46396484 6.73994141 -4.42207031 5.93105469 -4.37890625 5.09765625 C-4.34224854 4.3487915 -4.30559082 3.59992676 -4.26782227 2.82836914 C-3.90513426 -0.29092019 -3.21750947 0.06566346 0 0 Z " fill="#C6C6C6" transform="translate(199.0625,58.9375)"/>
<path d="M0 0 C0.33 0 0.66 0 1 0 C1.23222505 9.72764928 0.94269624 19.30515382 0.0625 29 C-0.02435059 29.97340332 -0.11120117 30.94680664 -0.20068359 31.94970703 C-0.86822768 38.86822768 -0.86822768 38.86822768 -2 40 C-6.0153707 39.82141106 -9.99741832 39.37919195 -14 39 C-14 33.39 -14 27.78 -14 22 C-15.918125 22.020625 -17.83625 22.04125 -19.8125 22.0625 C-23.26336585 22.09960608 -25.71480525 22.09506492 -29 21 C-28.67 17.7 -28.34 14.4 -28 11 C-26.02 11 -24.04 11 -22 11 C-22 11.33 -22 11.66 -22 12 C-23.65 12 -25.3 12 -27 12 C-27 14.64 -27 17.28 -27 20 C-26.00097656 19.98839844 -25.00195312 19.97679687 -23.97265625 19.96484375 C-22.68230469 19.95582031 -21.39195312 19.94679687 -20.0625 19.9375 C-18.77472656 19.92589844 -17.48695313 19.91429687 -16.16015625 19.90234375 C-13 20 -13 20 -12 21 C-11.66888616 26.71658302 -11.78706717 32.39018566 -13 38 C-9.7 38 -6.4 38 -3 38 C-2.95101563 37.10023438 -2.90203125 36.20046875 -2.8515625 35.2734375 C-2.16674333 23.48982496 -1.11617313 11.74987489 0 0 Z " fill="#B5B5B5" transform="translate(358,114)"/>
<path d="M0 0 C10.1891394 0.44249977 20.34476304 1.04531739 30.5 2 C31.85194458 2.1244751 31.85194458 2.1244751 33.23120117 2.25146484 C34.07271729 2.33348145 34.9142334 2.41549805 35.78125 2.5 C36.8959668 2.60828125 36.8959668 2.60828125 38.03320312 2.71875 C40 3 40 3 43 4 C43 6.97 43 9.94 43 13 C42.67 13 42.34 13 42 13 C42 10.36 42 7.72 42 5 C40.78828125 4.95101562 39.5765625 4.90203125 38.328125 4.8515625 C26.16318435 4.32164104 14.10298655 3.32617831 2 2 C1.67 4.64 1.34 7.28 1 10 C5.62 10 10.24 10 15 10 C14.67 11.98 14.34 13.96 14 16 C13.01 16.66 12.02 17.32 11 18 C11.33 16.35 11.66 14.7 12 13 C11.14535156 12.95101562 10.29070312 12.90203125 9.41015625 12.8515625 C7.75306641 12.73941406 7.75306641 12.73941406 6.0625 12.625 C4.96035156 12.55539063 3.85820312 12.48578125 2.72265625 12.4140625 C1.82417969 12.27742188 0.92570312 12.14078125 0 12 C-1.12256131 9.75487738 -1.13413762 8.48543351 -1.125 6 C-1.12886719 4.948125 -1.12886719 4.948125 -1.1328125 3.875 C-1 2 -1 2 0 0 Z " fill="#B9B9B9" transform="translate(300,73)"/>
<path d="M0 0 C20.53191489 -0.19148936 20.53191489 -0.19148936 30 1 C30 1.66 30 2.32 30 3 C31.31742187 2.9690625 32.63484375 2.938125 33.9921875 2.90625 C41.41065232 2.90625 48.75471514 3.74333548 56.125 4.5 C57.57287163 4.64498177 59.02078811 4.78951631 60.46875 4.93359375 C63.97969823 5.28391385 67.49000274 5.64026196 71 6 C72.07174763 9.65188082 71.76411467 12.26432828 71 16 C70.67 16 70.34 16 70 16 C70 13.03 70 10.06 70 7 C68.98933472 7.03480469 68.98933472 7.03480469 67.95825195 7.0703125 C56.63131168 7.27458225 45.44981084 6.08063065 34.1875 5 C32.12700457 4.80674242 30.06645795 4.61402978 28.00585938 4.421875 C23.00329414 3.95419527 18.0014788 3.47915307 13 3 C13 2.34 13 1.68 13 1 C8.71 1 4.42 1 0 1 C0 0.67 0 0.34 0 0 Z " fill="#C2C2C2" transform="translate(323,45)"/>
<path d="M0 0 C15.13438288 -0.27257825 29.9541536 0.33045942 45 2 C45 2.66 45 3.32 45 4 C48.96 4.33 52.92 4.66 57 5 C57 5.33 57 5.66 57 6 C45.2187584 6.35640731 33.69975746 5.25940704 22 4 C22 3.34 22 2.68 22 2 C21.00033203 2.01740234 21.00033203 2.01740234 19.98046875 2.03515625 C13.25769055 2.10097366 6.682561 1.72383639 0 1 C0 0.67 0 0.34 0 0 Z " fill="#BDBDBD" transform="translate(336,62)"/>
<path d="M0 0 C7.92 0 15.84 0 24 0 C24 3.3 24 6.6 24 10 C23 11 23 11 21.14233398 11.11352539 C20.35157471 11.10828857 19.56081543 11.10305176 18.74609375 11.09765625 C17.89208984 11.09443359 17.03808594 11.09121094 16.15820312 11.08789062 C15.26037109 11.07951172 14.36253906 11.07113281 13.4375 11.0625 C12.53580078 11.05798828 11.63410156 11.05347656 10.70507812 11.04882812 C8.46998686 11.03700225 6.23502563 11.0205222 4 11 C4 13.31 4 15.62 4 18 C3.67 18 3.34 18 3 18 C3 14.7 3 11.4 3 8 C9.6 8 16.2 8 23 8 C23 5.69 23 3.38 23 1 C15.41 1 7.82 1 0 1 C0 0.67 0 0.34 0 0 Z " fill="#929292" transform="translate(320,111)"/>
<path d="M0 0 C1.3125 2.0625 1.3125 2.0625 2 4 C1.030625 3.649375 0.06125 3.29875 -0.9375 2.9375 C-6.78241537 1.29620053 -12.45804813 1.95616773 -17.875 4.6875 C-21.41615727 7.30795638 -22.36870634 8.95535131 -24 13 C-24.47059665 16.45057413 -24.47059665 16.45057413 -24.375 20 C-24.38273438 21.175625 -24.39046875 22.35125 -24.3984375 23.5625 C-23.96558575 27.29690722 -22.86524232 29.7629657 -21 33 C-22.875 32.8125 -22.875 32.8125 -25 32 C-28.14854204 25.76943441 -27.9421477 18.6908879 -26.2421875 12.03125 C-24.4613162 7.15138218 -24.4613162 7.15138218 -23 5 C-20.859375 4.23046875 -20.859375 4.23046875 -19 4 C-19 3.34 -19 2.68 -19 2 C-16.77376199 1.46678738 -14.54384996 0.94889881 -12.3125 0.4375 C-11.07113281 0.14746094 -9.82976562 -0.14257812 -8.55078125 -0.44140625 C-5.22072446 -0.96527657 -3.16764454 -1.07140918 0 0 Z " fill="#BBBBBB" transform="translate(173,39)"/>
<path d="M0 0 C9.2089343 0.53754148 18.37803009 1.29463039 27.55810547 2.19433594 C38.36213235 3.24562305 49.18078685 4.12135389 60 5 C60 5.33 60 5.66 60 6 C47.96275653 6.2060629 35.99853201 6.21427241 24 5.125 C23.11231934 5.04652832 22.22463867 4.96805664 21.31005859 4.88720703 C16.03297637 4.36282026 11.11899377 3.37990267 6 2 C4.00398694 1.6435691 2.005155 1.30077325 0 1 C0 0.67 0 0.34 0 0 Z " fill="#B4B4B4" transform="translate(289,56)"/>
<path d="M0 0 C1.97909398 -0.02686553 3.95828971 -0.04633375 5.9375 -0.0625 C7.03964844 -0.07410156 8.14179688 -0.08570312 9.27734375 -0.09765625 C12 0 12 0 13 1 C13.04092937 3.33297433 13.04241723 5.66705225 13 8 C13.66 8 14.32 8 15 8 C15.07654536 12.51617599 15.10228696 16.59085217 14 21 C13.67 21 13.34 21 13 21 C13 17.37 13 13.74 13 10 C4.09 9.34 -4.82 8.68 -14 8 C-14 7.67 -14 7.34 -14 7 C-11.33326258 6.97272655 -8.66681131 6.95303052 -6 6.9375 C-4.88431641 6.92493164 -4.88431641 6.92493164 -3.74609375 6.91210938 C1.26148844 6.89033728 6.04279032 7.28458451 11 8 C11 6.02 11 4.04 11 2 C5.555 1.505 5.555 1.505 0 1 C0 0.67 0 0.34 0 0 Z " fill="#4D4D4D" transform="translate(173,29)"/>
<path d="M0 0 C3.63 0 7.26 0 11 0 C11.59244968 13.49468715 9.78792816 26.64601529 8 40 C7.67 40 7.34 40 7 40 C7 33.4 7 26.8 7 20 C7.66 20 8.32 20 9 20 C9 13.73 9 7.46 9 1 C6.36 1 3.72 1 1 1 C1 3.64 1 6.28 1 9 C0.67 9 0.34 9 0 9 C0 6.03 0 3.06 0 0 Z " fill="#5C5C5C" transform="translate(205,20)"/>
<path d="M0 0 C1.98 0 3.96 0 6 0 C6 0.33 6 0.66 6 1 C4.35 1 2.7 1 1 1 C1.00523682 1.65484375 1.01047363 2.3096875 1.01586914 2.984375 C1.036827 5.98957333 1.0497195 8.99475621 1.0625 12 C1.07087891 13.02996094 1.07925781 14.05992188 1.08789062 15.12109375 C1.10613637 20.85025613 0.86475384 26.33484101 0 32 C-0.99 32 -1.98 32 -3 32 C-2.45707868 21.2558729 -1.4598439 10.65827777 0 0 Z " fill="#AEAEAE" transform="translate(204,19)"/>
<path d="M0 0 C-2.31 0.66 -4.62 1.32 -7 2 C-6.34 4.31 -5.68 6.62 -5 9 C-1.4780279 9.08004482 1.61981469 9.04005702 5 8 C5 7.34 5 6.68 5 6 C6.65 5.67 8.3 5.34 10 5 C9 8 9 8 6.4375 9.625 C2.36564865 11.25374054 -0.61294122 11.85616201 -5 12 C-7.92756123 9.89023169 -8.53491744 7.77620742 -9.1875 4.3125 C-9.34605469 3.50425781 -9.50460937 2.69601563 -9.66796875 1.86328125 C-9.77753906 1.24839844 -9.88710938 0.63351563 -10 0 C-3.375 -1.125 -3.375 -1.125 0 0 Z " fill="#B4B4B4" transform="translate(305,95)"/>
<path d="M0 0 C3.96 0 7.92 0 12 0 C12 4.95 12 9.9 12 15 C11.34 15 10.68 15 10 15 C10 18.3 10 21.6 10 25 C9.34 25.33 8.68 25.66 8 26 C7.89518691 20.23528001 8.26708873 14.7147271 9 9 C9.09539062 8.22527344 9.19078125 7.45054688 9.2890625 6.65234375 C9.52173549 4.76769254 9.76024825 2.88376378 10 1 C6.7 1 3.4 1 0 1 C0 0.67 0 0.34 0 0 Z " fill="#CCCCCC" transform="translate(189,19)"/>
<path d="M0 0 C12.03059853 0.70224692 24.00891009 1.8097271 36 3 C36 3.33 36 3.66 36 4 C32.50007197 4.05869332 29.0002728 4.09382709 25.5 4.125 C24.02660156 4.15013672 24.02660156 4.15013672 22.5234375 4.17578125 C16.6200161 4.21513739 11.6614403 3.66810295 6 2 C4.00398694 1.6435691 2.005155 1.30077325 0 1 C0 0.67 0 0.34 0 0 Z " fill="#A2A2A2" transform="translate(289,56)"/>
<path d="M0 0 C2.0625 0.4375 2.0625 0.4375 4 1 C4 3.31 4 5.62 4 8 C2.34385343 8.38218767 0.67542976 8.71395102 -1 9 C-1.33 8.67 -1.66 8.34 -2 8 C-1.28 1.28 -1.28 1.28 0 0 Z " fill="#ED7027" transform="translate(63,26)"/>
<path d="M0 0 C2.97 0 5.94 0 9 0 C9 1.32 9 2.64 9 4 C6.03 4 3.06 4 0 4 C0 2.68 0 1.36 0 0 Z " fill="#ED7028" transform="translate(79,41)"/>
<path d="M0 0 C0.33 0.66 0.66 1.32 1 2 C-3.59029679 6.65963663 -7.19740555 8.44080452 -13.8125 8.5 C-17.90857085 8.38475299 -19.54419671 8.30386886 -23 6 C-22.67 5.34 -22.34 4.68 -22 4 C-20.515 4.99 -20.515 4.99 -19 6 C-11.5137103 6.62385747 -5.86048739 4.9228094 0 0 Z " fill="#BCBCBC" transform="translate(178,70)"/>
<path d="M0 0 C1.98 0 3.96 0 6 0 C6.02700675 2.91672884 6.04684237 5.83320677 6.0625 8.75 C6.07087891 9.575 6.07925781 10.4 6.08789062 11.25 C6.09111328 12.04921875 6.09433594 12.8484375 6.09765625 13.671875 C6.10289307 14.4050293 6.10812988 15.13818359 6.11352539 15.89355469 C5.9975109 18.0461849 5.59073271 19.9314135 5 22 C4.34 22 3.68 22 3 22 C3 19.36 3 16.72 3 14 C3.66 14 4.32 14 5 14 C5 9.71 5 5.42 5 1 C3.35 1 1.7 1 0 1 C0 0.67 0 0.34 0 0 Z " fill="#6D6D6D" transform="translate(196,59)"/>
<path d="M0 0 C1.3125 2.0625 1.3125 2.0625 2 4 C1.030625 3.649375 0.06125 3.29875 -0.9375 2.9375 C-7.05731421 1.18720831 -13.31715044 2.25023408 -19 5 C-19 4.01 -19 3.02 -19 2 C-16.77376199 1.46678738 -14.54384996 0.94889881 -12.3125 0.4375 C-11.07113281 0.14746094 -9.82976562 -0.14257812 -8.55078125 -0.44140625 C-5.22072446 -0.96527657 -3.16764454 -1.07140918 0 0 Z " fill="#AEAEAE" transform="translate(173,39)"/>
<path d="M0 0 C2.00720923 0.28674418 4.0085944 0.61866701 6 1 C6 1.99 6 2.98 6 4 C3.03 4.66 0.06 5.32 -3 6 C-1.125 1.125 -1.125 1.125 0 0 Z " fill="#ED6F26" transform="translate(78,31)"/>
<path d="M0 0 C2.64 0 5.28 0 8 0 C8 1.32 8 2.64 8 4 C5.36 4 2.72 4 0 4 C0 2.68 0 1.36 0 0 Z " fill="#ED6D23" transform="translate(40,41)"/>
<path d="M0 0 C0.33 0 0.66 0 1 0 C1 2.31 1 4.62 1 7 C1.66 7 2.32 7 3 7 C3.07654536 11.51617599 3.10228696 15.59085217 2 20 C1.67 20 1.34 20 1 20 C1 16.37 1 12.74 1 9 C-0.65 9 -2.3 9 -4 9 C-2.68 8.67 -1.36 8.34 0 8 C0 5.36 0 2.72 0 0 Z " fill="#949494" transform="translate(185,30)"/>
<path d="M0 0 C3.02419525 0.58803797 6.01758453 1.22678118 9 2 C9.125 7.75 9.125 7.75 8 10 C5.9375 10.625 5.9375 10.625 4 11 C4.66 9.02 5.32 7.04 6 5 C6.66 5 7.32 5 8 5 C8 4.34 8 3.68 8 3 C6.865625 2.87625 5.73125 2.7525 4.5625 2.625 C3.386875 2.41875 2.21125 2.2125 1 2 C0.67 1.34 0.34 0.68 0 0 Z " fill="#A4A4A4" transform="translate(334,96)"/>
<path d="M0 0 C5.875 3.625 5.875 3.625 7 7 C7.66 7.66 8.32 8.32 9 9 C7.35 8.67 5.7 8.34 4 8 C3.67 6.68 3.34 5.36 3 4 C0.36 4 -2.28 4 -5 4 C-3.35 2.68 -1.7 1.36 0 0 Z " fill="#B7B7B7" transform="translate(320,96)"/>
<path d="M0 0 C6.27 0 12.54 0 19 0 C19 0.99 19 1.98 19 3 C17.02 3 15.04 3 13 3 C13 2.34 13 1.68 13 1 C8.71 1 4.42 1 0 1 C0 0.67 0 0.34 0 0 Z " fill="#ADADAD" transform="translate(323,45)"/>
<path d="M0 0 C3.465 1.98 3.465 1.98 7 4 C6.67 4.66 6.34 5.32 6 6 C3.625 6.125 3.625 6.125 1 6 C0.34 5.34 -0.32 4.68 -1 4 C-0.625 1.875 -0.625 1.875 0 0 Z " fill="#ED7129" transform="translate(49,31)"/>
<path d="M0 0 C-2.31 0.66 -4.62 1.32 -7 2 C-6.67 3.98 -6.34 5.96 -6 8 C-10 3.375 -10 3.375 -10 0 C-3.375 -1.125 -3.375 -1.125 0 0 Z " fill="#9F9F9F" transform="translate(305,95)"/>
<path d="M0 0 C2.31 0 4.62 0 7 0 C7 0.33 7 0.66 7 1 C5.35 1 3.7 1 2 1 C2 3.64 2 6.28 2 9 C1.01 9 0.02 9 -1 9 C-0.67 6.03 -0.34 3.06 0 0 Z " fill="#C2C2C2" transform="translate(161,17)"/>
<path d="M0 0 C1.65 0 3.3 0 5 0 C4.6875 2.875 4.6875 2.875 4 6 C3.01 6.66 2.02 7.32 1 8 C1 7.01 1 6.02 1 5 C1.66 5 2.32 5 3 5 C3 4.01 3 3.02 3 2 C2.01 2 1.02 2 0 2 C0 1.34 0 0.68 0 0 Z " fill="#939393" transform="translate(310,83)"/>
</svg>
